<svg width="297" height="108" viewBox="0 0 297 108" fill="none" xmlns="http://www.w3.org/2000/svg" style="">
<g filter="url(#filter0_d_157_7315)">
<path d="M3.96704 89.6639C11.3083 96.8543 31.619 106.921 54.1321 89.6639C78.0156 73.5925 103.726 82.9675 113.596 89.6639C133.173 104.155 161.804 101.19 178.933 89.6639C196.062 78.1374 233.258 78.4666 249.898 89.6639C266.538 100.861 290.275 94.4392 297.371 89.6639" stroke="url(#paint0_linear_157_7315)" stroke-width="1.55515" class="zSqcHJhR_0"></path>
</g>
<g filter="url(#filter1_d_157_7315)">
<path d="M3.96704 89.8092C3.96704 89.8092 36.717 103.217 47.1012 86.732C57.4853 70.247 60.1479 41.8927 76.656 41.8927C93.1642 41.8927 91.3003 61.2351 106.211 61.2351C121.121 61.2351 126.002 5.13635 146.15 4.08698C166.298 3.03761 166.386 49.1461 185.556 50.0253C204.727 50.9045 204.157 21.9804 222.034 22.5502C239.911 23.12 243.335 56.1797 257.979 53.9817C272.623 51.7837 296.853 4.52658 296.853 4.52658" stroke="url(#paint1_linear_157_7315)" stroke-width="1.55515" stroke-linecap="round" class="zSqcHJhR_1"></path>
</g>
<defs>
<filter id="filter0_d_157_7315" x="0.312558" y="76.9014" width="304.75" height="30.5854" filterUnits="userSpaceOnUse" color-interpolation-filters="sRGB">
<feFlood flood-opacity="0" result="BackgroundImageFix"></feFlood>
<feColorMatrix in="SourceAlpha" type="matrix" values="0 0 0 0 0 0 0 0 0 0 0 0 0 0 0 0 0 0 127 0" result="hardAlpha"></feColorMatrix>
<feOffset dx="2.07353" dy="2.07353"></feOffset>
<feGaussianBlur stdDeviation="2.59191"></feGaussianBlur>
<feComposite in2="hardAlpha" operator="out"></feComposite>
<feColorMatrix type="matrix" values="0 0 0 0 0.54902 0 0 0 0 0.54902 0 0 0 0 0.54902 0 0 0 0.7 0"></feColorMatrix>
<feBlend mode="normal" in2="BackgroundImageFix" result="effect1_dropShadow_157_7315"></feBlend>
<feBlend mode="normal" in="SourceGraphic" in2="effect1_dropShadow_157_7315" result="shape"></feBlend>
</filter>
<filter id="filter1_d_157_7315" x="0.0789151" y="0.181698" width="304.809" height="102.804" filterUnits="userSpaceOnUse" color-interpolation-filters="sRGB">
<feFlood flood-opacity="0" result="BackgroundImageFix"></feFlood>
<feColorMatrix in="SourceAlpha" type="matrix" values="0 0 0 0 0 0 0 0 0 0 0 0 0 0 0 0 0 0 127 0" result="hardAlpha"></feColorMatrix>
<feOffset dx="2.07353" dy="2.07353"></feOffset>
<feGaussianBlur stdDeviation="2.59191"></feGaussianBlur>
<feColorMatrix type="matrix" values="0 0 0 0 0.54902 0 0 0 0 0.54902 0 0 0 0 0.54902 0 0 0 0.7 0"></feColorMatrix>
<feBlend mode="normal" in2="BackgroundImageFix" result="effect1_dropShadow_157_7315"></feBlend>
<feBlend mode="normal" in="SourceGraphic" in2="effect1_dropShadow_157_7315" result="shape"></feBlend>
</filter>
<linearGradient id="paint0_linear_157_7315" x1="3.96704" y1="99.4518" x2="297.371" y2="99.4518" gradientUnits="userSpaceOnUse">
<stop stop-color="#98D750"></stop>
<stop offset="1" stop-color="#39B54A"></stop>
</linearGradient>
<linearGradient id="paint1_linear_157_7315" x1="7.22134" y1="-87.6829" x2="296.853" y2="-87.6829" gradientUnits="userSpaceOnUse">
<stop stop-color="#FF9F03"></stop>
<stop offset="1" stop-color="#C11A2A"></stop>
</linearGradient>
</defs>
<style data-made-with="vivus-instant">.zSqcHJhR_0{stroke-dasharray:311 313;stroke-dashoffset:312;animation:zSqcHJhR_draw 2000ms linear 0ms forwards;}.zSqcHJhR_1{stroke-dasharray:440 442;stroke-dashoffset:441;animation:zSqcHJhR_draw 2000ms linear 1000ms forwards;}@keyframes zSqcHJhR_draw{100%{stroke-dashoffset:0;}}@keyframes zSqcHJhR_fade{0%{stroke-opacity:1;}94.44444444444444%{stroke-opacity:1;}100%{stroke-opacity:0;}}</style></svg>
