<svg width="310" height="234" viewBox="0 0 310 234" fill="none" xmlns="http://www.w3.org/2000/svg" style="">
<mask id="mask0_34_2268" style="mask-type:alpha" maskUnits="userSpaceOnUse" x="0" y="0" width="310" height="234">
<path width="310" height="234" fill="#F6F6F6" d="M0 0 L310 0 L310 234 L0 234 Z" class="HcoFrPZx_0"></path>
</mask>
<g mask="url(#mask0_34_2268)">
<path width="310" height="235" fill="#F6F6F6" d="M0 -1 L310 -1 L310 234 L0 234 Z" class="HcoFrPZx_1"></path>
<path opacity="0.197516" fill-rule="evenodd" clip-rule="evenodd" d="M-0.046875 36.5244C-0.046875 36.2483 0.176983 36.0244 0.453125 36.0244H2.94506C3.2212 36.0244 3.44506 36.2483 3.44506 36.5244C3.44506 36.8006 3.2212 37.0244 2.94506 37.0244H0.453125C0.176983 37.0244 -0.046875 36.8006 -0.046875 36.5244ZM7.42894 36.5244C7.42894 36.2483 7.6528 36.0244 7.92894 36.0244H12.9128C13.189 36.0244 13.4128 36.2483 13.4128 36.5244C13.4128 36.8006 13.189 37.0244 12.9128 37.0244H7.92894C7.6528 37.0244 7.42894 36.8006 7.42894 36.5244ZM17.3967 36.5244C17.3967 36.2483 17.6205 36.0244 17.8967 36.0244H22.8806C23.1567 36.0244 23.3806 36.2483 23.3806 36.5244C23.3806 36.8006 23.1567 37.0244 22.8806 37.0244H17.8967C17.6205 37.0244 17.3967 36.8006 17.3967 36.5244ZM27.3644 36.5244C27.3644 36.2483 27.5883 36.0244 27.8644 36.0244H32.8483C33.1245 36.0244 33.3483 36.2483 33.3483 36.5244C33.3483 36.8006 33.1245 37.0244 32.8483 37.0244H27.8644C27.5883 37.0244 27.3644 36.8006 27.3644 36.5244ZM37.3322 36.5244C37.3322 36.2483 37.556 36.0244 37.8322 36.0244H42.8161C43.0922 36.0244 43.3161 36.2483 43.3161 36.5244C43.3161 36.8006 43.0922 37.0244 42.8161 37.0244H37.8322C37.556 37.0244 37.3322 36.8006 37.3322 36.5244ZM47.2999 36.5244C47.2999 36.2483 47.5238 36.0244 47.7999 36.0244H52.7838C53.06 36.0244 53.2838 36.2483 53.2838 36.5244C53.2838 36.8006 53.06 37.0244 52.7838 37.0244H47.7999C47.5238 37.0244 47.2999 36.8006 47.2999 36.5244ZM57.2677 36.5244C57.2677 36.2483 57.4916 36.0244 57.7677 36.0244H62.7516C63.0277 36.0244 63.2516 36.2483 63.2516 36.5244C63.2516 36.8006 63.0277 37.0244 62.7516 37.0244H57.7677C57.4916 37.0244 57.2677 36.8006 57.2677 36.5244ZM67.2354 36.5244C67.2354 36.2483 67.4593 36.0244 67.7354 36.0244H72.7193C72.9955 36.0244 73.2193 36.2483 73.2193 36.5244C73.2193 36.8006 72.9955 37.0244 72.7193 37.0244H67.7354C67.4593 37.0244 67.2354 36.8006 67.2354 36.5244ZM77.2032 36.5244C77.2032 36.2483 77.4271 36.0244 77.7032 36.0244H82.6871C82.9632 36.0244 83.1871 36.2483 83.1871 36.5244C83.1871 36.8006 82.9632 37.0244 82.6871 37.0244H77.7032C77.4271 37.0244 77.2032 36.8006 77.2032 36.5244ZM87.171 36.5244C87.171 36.2483 87.3948 36.0244 87.671 36.0244H92.6548C92.931 36.0244 93.1548 36.2483 93.1548 36.5244C93.1548 36.8006 92.931 37.0244 92.6548 37.0244H87.671C87.3948 37.0244 87.171 36.8006 87.171 36.5244ZM97.1387 36.5244C97.1387 36.2483 97.3626 36.0244 97.6387 36.0244H102.623C102.899 36.0244 103.123 36.2483 103.123 36.5244C103.123 36.8006 102.899 37.0244 102.623 37.0244H97.6387C97.3626 37.0244 97.1387 36.8006 97.1387 36.5244ZM107.106 36.5244C107.106 36.2483 107.33 36.0244 107.606 36.0244H112.59C112.866 36.0244 113.09 36.2483 113.09 36.5244C113.09 36.8006 112.866 37.0244 112.59 37.0244H107.606C107.33 37.0244 107.106 36.8006 107.106 36.5244ZM117.074 36.5244C117.074 36.2483 117.298 36.0244 117.574 36.0244H122.558C122.834 36.0244 123.058 36.2483 123.058 36.5244C123.058 36.8006 122.834 37.0244 122.558 37.0244H117.574C117.298 37.0244 117.074 36.8006 117.074 36.5244ZM127.042 36.5244C127.042 36.2483 127.266 36.0244 127.542 36.0244H132.526C132.802 36.0244 133.026 36.2483 133.026 36.5244C133.026 36.8006 132.802 37.0244 132.526 37.0244H127.542C127.266 37.0244 127.042 36.8006 127.042 36.5244ZM137.01 36.5244C137.01 36.2483 137.234 36.0244 137.51 36.0244H142.494C142.77 36.0244 142.994 36.2483 142.994 36.5244C142.994 36.8006 142.77 37.0244 142.494 37.0244H137.51C137.234 37.0244 137.01 36.8006 137.01 36.5244ZM146.977 36.5244C146.977 36.2483 147.201 36.0244 147.477 36.0244H152.461C152.737 36.0244 152.961 36.2483 152.961 36.5244C152.961 36.8006 152.737 37.0244 152.461 37.0244H147.477C147.201 37.0244 146.977 36.8006 146.977 36.5244ZM156.945 36.5244C156.945 36.2483 157.169 36.0244 157.445 36.0244H162.429C162.705 36.0244 162.929 36.2483 162.929 36.5244C162.929 36.8006 162.705 37.0244 162.429 37.0244H157.445C157.169 37.0244 156.945 36.8006 156.945 36.5244ZM166.913 36.5244C166.913 36.2483 167.137 36.0244 167.413 36.0244H172.397C172.673 36.0244 172.897 36.2483 172.897 36.5244C172.897 36.8006 172.673 37.0244 172.397 37.0244H167.413C167.137 37.0244 166.913 36.8006 166.913 36.5244ZM176.881 36.5244C176.881 36.2483 177.105 36.0244 177.381 36.0244H182.365C182.641 36.0244 182.865 36.2483 182.865 36.5244C182.865 36.8006 182.641 37.0244 182.365 37.0244H177.381C177.105 37.0244 176.881 36.8006 176.881 36.5244ZM186.848 36.5244C186.848 36.2483 187.072 36.0244 187.348 36.0244H192.332C192.608 36.0244 192.832 36.2483 192.832 36.5244C192.832 36.8006 192.608 37.0244 192.332 37.0244H187.348C187.072 37.0244 186.848 36.8006 186.848 36.5244ZM196.816 36.5244C196.816 36.2483 197.04 36.0244 197.316 36.0244H202.3C202.576 36.0244 202.8 36.2483 202.8 36.5244C202.8 36.8006 202.576 37.0244 202.3 37.0244H197.316C197.04 37.0244 196.816 36.8006 196.816 36.5244ZM206.784 36.5244C206.784 36.2483 207.008 36.0244 207.284 36.0244H212.268C212.544 36.0244 212.768 36.2483 212.768 36.5244C212.768 36.8006 212.544 37.0244 212.268 37.0244H207.284C207.008 37.0244 206.784 36.8006 206.784 36.5244ZM216.752 36.5244C216.752 36.2483 216.976 36.0244 217.252 36.0244H222.236C222.512 36.0244 222.736 36.2483 222.736 36.5244C222.736 36.8006 222.512 37.0244 222.236 37.0244H217.252C216.976 37.0244 216.752 36.8006 216.752 36.5244ZM226.719 36.5244C226.719 36.2483 226.943 36.0244 227.219 36.0244H232.203C232.479 36.0244 232.703 36.2483 232.703 36.5244C232.703 36.8006 232.479 37.0244 232.203 37.0244H227.219C226.943 37.0244 226.719 36.8006 226.719 36.5244ZM236.687 36.5244C236.687 36.2483 236.911 36.0244 237.187 36.0244H242.171C242.447 36.0244 242.671 36.2483 242.671 36.5244C242.671 36.8006 242.447 37.0244 242.171 37.0244H237.187C236.911 37.0244 236.687 36.8006 236.687 36.5244ZM246.655 36.5244C246.655 36.2483 246.879 36.0244 247.155 36.0244H252.139C252.415 36.0244 252.639 36.2483 252.639 36.5244C252.639 36.8006 252.415 37.0244 252.139 37.0244H247.155C246.879 37.0244 246.655 36.8006 246.655 36.5244ZM256.623 36.5244C256.623 36.2483 256.846 36.0244 257.123 36.0244H262.107C262.383 36.0244 262.607 36.2483 262.607 36.5244C262.607 36.8006 262.383 37.0244 262.107 37.0244H257.123C256.846 37.0244 256.623 36.8006 256.623 36.5244ZM266.59 36.5244C266.59 36.2483 266.814 36.0244 267.09 36.0244H272.074C272.35 36.0244 272.574 36.2483 272.574 36.5244C272.574 36.8006 272.35 37.0244 272.074 37.0244H267.09C266.814 37.0244 266.59 36.8006 266.59 36.5244ZM276.558 36.5244C276.558 36.2483 276.782 36.0244 277.058 36.0244H282.042C282.318 36.0244 282.542 36.2483 282.542 36.5244C282.542 36.8006 282.318 37.0244 282.042 37.0244H277.058C276.782 37.0244 276.558 36.8006 276.558 36.5244ZM286.526 36.5244C286.526 36.2483 286.75 36.0244 287.026 36.0244H292.01C292.286 36.0244 292.51 36.2483 292.51 36.5244C292.51 36.8006 292.286 37.0244 292.01 37.0244H287.026C286.75 37.0244 286.526 36.8006 286.526 36.5244ZM296.494 36.5244C296.494 36.2483 296.718 36.0244 296.994 36.0244H301.978C302.254 36.0244 302.478 36.2483 302.478 36.5244C302.478 36.8006 302.254 37.0244 301.978 37.0244H296.994C296.718 37.0244 296.494 36.8006 296.494 36.5244ZM306.461 36.5244C306.461 36.2483 306.685 36.0244 306.961 36.0244H309.453C309.73 36.0244 309.953 36.2483 309.953 36.5244C309.953 36.8006 309.73 37.0244 309.453 37.0244H306.961C306.685 37.0244 306.461 36.8006 306.461 36.5244ZM-0.046875 77.1975C-0.046875 76.9213 0.176983 76.6975 0.453125 76.6975H2.94506C3.2212 76.6975 3.44506 76.9213 3.44506 77.1975C3.44506 77.4736 3.2212 77.6975 2.94506 77.6975H0.453125C0.176983 77.6975 -0.046875 77.4736 -0.046875 77.1975ZM7.42894 77.1975C7.42894 76.9213 7.6528 76.6975 7.92894 76.6975H12.9128C13.189 76.6975 13.4128 76.9213 13.4128 77.1975C13.4128 77.4736 13.189 77.6975 12.9128 77.6975H7.92894C7.6528 77.6975 7.42894 77.4736 7.42894 77.1975ZM17.3967 77.1975C17.3967 76.9213 17.6205 76.6975 17.8967 76.6975H22.8806C23.1567 76.6975 23.3806 76.9213 23.3806 77.1975C23.3806 77.4736 23.1567 77.6975 22.8806 77.6975H17.8967C17.6205 77.6975 17.3967 77.4736 17.3967 77.1975ZM27.3644 77.1975C27.3644 76.9213 27.5883 76.6975 27.8644 76.6975H32.8483C33.1245 76.6975 33.3483 76.9213 33.3483 77.1975C33.3483 77.4736 33.1245 77.6975 32.8483 77.6975H27.8644C27.5883 77.6975 27.3644 77.4736 27.3644 77.1975ZM37.3322 77.1975C37.3322 76.9213 37.556 76.6975 37.8322 76.6975H42.8161C43.0922 76.6975 43.3161 76.9213 43.3161 77.1975C43.3161 77.4736 43.0922 77.6975 42.8161 77.6975H37.8322C37.556 77.6975 37.3322 77.4736 37.3322 77.1975ZM47.2999 77.1975C47.2999 76.9213 47.5238 76.6975 47.7999 76.6975H52.7838C53.06 76.6975 53.2838 76.9213 53.2838 77.1975C53.2838 77.4736 53.06 77.6975 52.7838 77.6975H47.7999C47.5238 77.6975 47.2999 77.4736 47.2999 77.1975ZM57.2677 77.1975C57.2677 76.9213 57.4916 76.6975 57.7677 76.6975H62.7516C63.0277 76.6975 63.2516 76.9213 63.2516 77.1975C63.2516 77.4736 63.0277 77.6975 62.7516 77.6975H57.7677C57.4916 77.6975 57.2677 77.4736 57.2677 77.1975ZM67.2354 77.1975C67.2354 76.9213 67.4593 76.6975 67.7354 76.6975H72.7193C72.9955 76.6975 73.2193 76.9213 73.2193 77.1975C73.2193 77.4736 72.9955 77.6975 72.7193 77.6975H67.7354C67.4593 77.6975 67.2354 77.4736 67.2354 77.1975ZM77.2032 77.1975C77.2032 76.9213 77.4271 76.6975 77.7032 76.6975H82.6871C82.9632 76.6975 83.1871 76.9213 83.1871 77.1975C83.1871 77.4736 82.9632 77.6975 82.6871 77.6975H77.7032C77.4271 77.6975 77.2032 77.4736 77.2032 77.1975ZM87.171 77.1975C87.171 76.9213 87.3948 76.6975 87.671 76.6975H92.6548C92.931 76.6975 93.1548 76.9213 93.1548 77.1975C93.1548 77.4736 92.931 77.6975 92.6548 77.6975H87.671C87.3948 77.6975 87.171 77.4736 87.171 77.1975ZM97.1387 77.1975C97.1387 76.9213 97.3626 76.6975 97.6387 76.6975H102.623C102.899 76.6975 103.123 76.9213 103.123 77.1975C103.123 77.4736 102.899 77.6975 102.623 77.6975H97.6387C97.3626 77.6975 97.1387 77.4736 97.1387 77.1975ZM107.106 77.1975C107.106 76.9213 107.33 76.6975 107.606 76.6975H112.59C112.866 76.6975 113.09 76.9213 113.09 77.1975C113.09 77.4736 112.866 77.6975 112.59 77.6975H107.606C107.33 77.6975 107.106 77.4736 107.106 77.1975ZM117.074 77.1975C117.074 76.9213 117.298 76.6975 117.574 76.6975H122.558C122.834 76.6975 123.058 76.9213 123.058 77.1975C123.058 77.4736 122.834 77.6975 122.558 77.6975H117.574C117.298 77.6975 117.074 77.4736 117.074 77.1975ZM127.042 77.1975C127.042 76.9213 127.266 76.6975 127.542 76.6975H132.526C132.802 76.6975 133.026 76.9213 133.026 77.1975C133.026 77.4736 132.802 77.6975 132.526 77.6975H127.542C127.266 77.6975 127.042 77.4736 127.042 77.1975ZM137.01 77.1975C137.01 76.9213 137.234 76.6975 137.51 76.6975H142.494C142.77 76.6975 142.994 76.9213 142.994 77.1975C142.994 77.4736 142.77 77.6975 142.494 77.6975H137.51C137.234 77.6975 137.01 77.4736 137.01 77.1975ZM146.977 77.1975C146.977 76.9213 147.201 76.6975 147.477 76.6975H152.461C152.737 76.6975 152.961 76.9213 152.961 77.1975C152.961 77.4736 152.737 77.6975 152.461 77.6975H147.477C147.201 77.6975 146.977 77.4736 146.977 77.1975ZM156.945 77.1975C156.945 76.9213 157.169 76.6975 157.445 76.6975H162.429C162.705 76.6975 162.929 76.9213 162.929 77.1975C162.929 77.4736 162.705 77.6975 162.429 77.6975H157.445C157.169 77.6975 156.945 77.4736 156.945 77.1975ZM166.913 77.1975C166.913 76.9213 167.137 76.6975 167.413 76.6975H172.397C172.673 76.6975 172.897 76.9213 172.897 77.1975C172.897 77.4736 172.673 77.6975 172.397 77.6975H167.413C167.137 77.6975 166.913 77.4736 166.913 77.1975ZM176.881 77.1975C176.881 76.9213 177.105 76.6975 177.381 76.6975H182.365C182.641 76.6975 182.865 76.9213 182.865 77.1975C182.865 77.4736 182.641 77.6975 182.365 77.6975H177.381C177.105 77.6975 176.881 77.4736 176.881 77.1975ZM186.848 77.1975C186.848 76.9213 187.072 76.6975 187.348 76.6975H192.332C192.608 76.6975 192.832 76.9213 192.832 77.1975C192.832 77.4736 192.608 77.6975 192.332 77.6975H187.348C187.072 77.6975 186.848 77.4736 186.848 77.1975ZM196.816 77.1975C196.816 76.9213 197.04 76.6975 197.316 76.6975H202.3C202.576 76.6975 202.8 76.9213 202.8 77.1975C202.8 77.4736 202.576 77.6975 202.3 77.6975H197.316C197.04 77.6975 196.816 77.4736 196.816 77.1975ZM206.784 77.1975C206.784 76.9213 207.008 76.6975 207.284 76.6975H212.268C212.544 76.6975 212.768 76.9213 212.768 77.1975C212.768 77.4736 212.544 77.6975 212.268 77.6975H207.284C207.008 77.6975 206.784 77.4736 206.784 77.1975ZM216.752 77.1975C216.752 76.9213 216.976 76.6975 217.252 76.6975H222.236C222.512 76.6975 222.736 76.9213 222.736 77.1975C222.736 77.4736 222.512 77.6975 222.236 77.6975H217.252C216.976 77.6975 216.752 77.4736 216.752 77.1975ZM226.719 77.1975C226.719 76.9213 226.943 76.6975 227.219 76.6975H232.203C232.479 76.6975 232.703 76.9213 232.703 77.1975C232.703 77.4736 232.479 77.6975 232.203 77.6975H227.219C226.943 77.6975 226.719 77.4736 226.719 77.1975ZM236.687 77.1975C236.687 76.9213 236.911 76.6975 237.187 76.6975H242.171C242.447 76.6975 242.671 76.9213 242.671 77.1975C242.671 77.4736 242.447 77.6975 242.171 77.6975H237.187C236.911 77.6975 236.687 77.4736 236.687 77.1975ZM246.655 77.1975C246.655 76.9213 246.879 76.6975 247.155 76.6975H252.139C252.415 76.6975 252.639 76.9213 252.639 77.1975C252.639 77.4736 252.415 77.6975 252.139 77.6975H247.155C246.879 77.6975 246.655 77.4736 246.655 77.1975ZM256.623 77.1975C256.623 76.9213 256.846 76.6975 257.123 76.6975H262.107C262.383 76.6975 262.607 76.9213 262.607 77.1975C262.607 77.4736 262.383 77.6975 262.107 77.6975H257.123C256.846 77.6975 256.623 77.4736 256.623 77.1975ZM266.59 77.1975C266.59 76.9213 266.814 76.6975 267.09 76.6975H272.074C272.35 76.6975 272.574 76.9213 272.574 77.1975C272.574 77.4736 272.35 77.6975 272.074 77.6975H267.09C266.814 77.6975 266.59 77.4736 266.59 77.1975ZM276.558 77.1975C276.558 76.9213 276.782 76.6975 277.058 76.6975H282.042C282.318 76.6975 282.542 76.9213 282.542 77.1975C282.542 77.4736 282.318 77.6975 282.042 77.6975H277.058C276.782 77.6975 276.558 77.4736 276.558 77.1975ZM286.526 77.1975C286.526 76.9213 286.75 76.6975 287.026 76.6975H292.01C292.286 76.6975 292.51 76.9213 292.51 77.1975C292.51 77.4736 292.286 77.6975 292.01 77.6975H287.026C286.75 77.6975 286.526 77.4736 286.526 77.1975ZM296.494 77.1975C296.494 76.9213 296.718 76.6975 296.994 76.6975H301.978C302.254 76.6975 302.478 76.9213 302.478 77.1975C302.478 77.4736 302.254 77.6975 301.978 77.6975H296.994C296.718 77.6975 296.494 77.4736 296.494 77.1975ZM306.461 77.1975C306.461 76.9213 306.685 76.6975 306.961 76.6975H309.453C309.73 76.6975 309.953 76.9213 309.953 77.1975C309.953 77.4736 309.73 77.6975 309.453 77.6975H306.961C306.685 77.6975 306.461 77.4736 306.461 77.1975ZM0.453125 117.371C0.176983 117.371 -0.046875 117.594 -0.046875 117.871C-0.046875 118.147 0.176983 118.371 0.453125 118.371H2.94506C3.2212 118.371 3.44506 118.147 3.44506 117.871C3.44506 117.594 3.2212 117.371 2.94506 117.371H0.453125ZM7.92894 117.371C7.6528 117.371 7.42894 117.594 7.42894 117.871C7.42894 118.147 7.6528 118.371 7.92894 118.371H12.9128C13.189 118.371 13.4128 118.147 13.4128 117.871C13.4128 117.594 13.189 117.371 12.9128 117.371H7.92894ZM17.8967 117.371C17.6205 117.371 17.3967 117.594 17.3967 117.871C17.3967 118.147 17.6205 118.371 17.8967 118.371H22.8806C23.1567 118.371 23.3806 118.147 23.3806 117.871C23.3806 117.594 23.1567 117.371 22.8806 117.371H17.8967ZM27.8644 117.371C27.5883 117.371 27.3644 117.594 27.3644 117.871C27.3644 118.147 27.5883 118.371 27.8644 118.371H32.8483C33.1245 118.371 33.3483 118.147 33.3483 117.871C33.3483 117.594 33.1245 117.371 32.8483 117.371H27.8644ZM37.8322 117.371C37.556 117.371 37.3322 117.594 37.3322 117.871C37.3322 118.147 37.556 118.371 37.8322 118.371H42.8161C43.0922 118.371 43.3161 118.147 43.3161 117.871C43.3161 117.594 43.0922 117.371 42.8161 117.371H37.8322ZM47.7999 117.371C47.5238 117.371 47.2999 117.594 47.2999 117.871C47.2999 118.147 47.5238 118.371 47.7999 118.371H52.7838C53.06 118.371 53.2838 118.147 53.2838 117.871C53.2838 117.594 53.06 117.371 52.7838 117.371H47.7999ZM57.7677 117.371C57.4916 117.371 57.2677 117.594 57.2677 117.871C57.2677 118.147 57.4916 118.371 57.7677 118.371H62.7516C63.0277 118.371 63.2516 118.147 63.2516 117.871C63.2516 117.594 63.0277 117.371 62.7516 117.371H57.7677ZM67.7354 117.371C67.4593 117.371 67.2354 117.594 67.2354 117.871C67.2354 118.147 67.4593 118.371 67.7354 118.371H72.7193C72.9955 118.371 73.2193 118.147 73.2193 117.871C73.2193 117.594 72.9955 117.371 72.7193 117.371H67.7354ZM77.7032 117.371C77.4271 117.371 77.2032 117.594 77.2032 117.871C77.2032 118.147 77.4271 118.371 77.7032 118.371H82.6871C82.9632 118.371 83.1871 118.147 83.1871 117.871C83.1871 117.594 82.9632 117.371 82.6871 117.371H77.7032ZM87.671 117.371C87.3948 117.371 87.171 117.594 87.171 117.871C87.171 118.147 87.3948 118.371 87.671 118.371H92.6548C92.931 118.371 93.1548 118.147 93.1548 117.871C93.1548 117.594 92.931 117.371 92.6548 117.371H87.671ZM97.6387 117.371C97.3626 117.371 97.1387 117.594 97.1387 117.871C97.1387 118.147 97.3626 118.371 97.6387 118.371H102.623C102.899 118.371 103.123 118.147 103.123 117.871C103.123 117.594 102.899 117.371 102.623 117.371H97.6387ZM107.606 117.371C107.33 117.371 107.106 117.594 107.106 117.871C107.106 118.147 107.33 118.371 107.606 118.371H112.59C112.866 118.371 113.09 118.147 113.09 117.871C113.09 117.594 112.866 117.371 112.59 117.371H107.606ZM117.574 117.371C117.298 117.371 117.074 117.594 117.074 117.871C117.074 118.147 117.298 118.371 117.574 118.371H122.558C122.834 118.371 123.058 118.147 123.058 117.871C123.058 117.594 122.834 117.371 122.558 117.371H117.574ZM127.542 117.371C127.266 117.371 127.042 117.594 127.042 117.871C127.042 118.147 127.266 118.371 127.542 118.371H132.526C132.802 118.371 133.026 118.147 133.026 117.871C133.026 117.594 132.802 117.371 132.526 117.371H127.542ZM137.51 117.371C137.234 117.371 137.01 117.594 137.01 117.871C137.01 118.147 137.234 118.371 137.51 118.371H142.494C142.77 118.371 142.994 118.147 142.994 117.871C142.994 117.594 142.77 117.371 142.494 117.371H137.51ZM147.477 117.371C147.201 117.371 146.977 117.594 146.977 117.871C146.977 118.147 147.201 118.371 147.477 118.371H152.461C152.737 118.371 152.961 118.147 152.961 117.871C152.961 117.594 152.737 117.371 152.461 117.371H147.477ZM157.445 117.371C157.169 117.371 156.945 117.594 156.945 117.871C156.945 118.147 157.169 118.371 157.445 118.371H162.429C162.705 118.371 162.929 118.147 162.929 117.871C162.929 117.594 162.705 117.371 162.429 117.371H157.445ZM167.413 117.371C167.137 117.371 166.913 117.594 166.913 117.871C166.913 118.147 167.137 118.371 167.413 118.371H172.397C172.673 118.371 172.897 118.147 172.897 117.871C172.897 117.594 172.673 117.371 172.397 117.371H167.413ZM177.381 117.371C177.105 117.371 176.881 117.594 176.881 117.871C176.881 118.147 177.105 118.371 177.381 118.371H182.365C182.641 118.371 182.865 118.147 182.865 117.871C182.865 117.594 182.641 117.371 182.365 117.371H177.381ZM187.348 117.371C187.072 117.371 186.848 117.594 186.848 117.871C186.848 118.147 187.072 118.371 187.348 118.371H192.332C192.608 118.371 192.832 118.147 192.832 117.871C192.832 117.594 192.608 117.371 192.332 117.371H187.348ZM197.316 117.371C197.04 117.371 196.816 117.594 196.816 117.871C196.816 118.147 197.04 118.371 197.316 118.371H202.3C202.576 118.371 202.8 118.147 202.8 117.871C202.8 117.594 202.576 117.371 202.3 117.371H197.316ZM207.284 117.371C207.008 117.371 206.784 117.594 206.784 117.871C206.784 118.147 207.008 118.371 207.284 118.371H212.268C212.544 118.371 212.768 118.147 212.768 117.871C212.768 117.594 212.544 117.371 212.268 117.371H207.284ZM217.252 117.371C216.976 117.371 216.752 117.594 216.752 117.871C216.752 118.147 216.976 118.371 217.252 118.371H222.236C222.512 118.371 222.736 118.147 222.736 117.871C222.736 117.594 222.512 117.371 222.236 117.371H217.252ZM227.219 117.371C226.943 117.371 226.719 117.594 226.719 117.871C226.719 118.147 226.943 118.371 227.219 118.371H232.203C232.479 118.371 232.703 118.147 232.703 117.871C232.703 117.594 232.479 117.371 232.203 117.371H227.219ZM237.187 117.371C236.911 117.371 236.687 117.594 236.687 117.871C236.687 118.147 236.911 118.371 237.187 118.371H242.171C242.447 118.371 242.671 118.147 242.671 117.871C242.671 117.594 242.447 117.371 242.171 117.371H237.187ZM247.155 117.371C246.879 117.371 246.655 117.594 246.655 117.871C246.655 118.147 246.879 118.371 247.155 118.371H252.139C252.415 118.371 252.639 118.147 252.639 117.871C252.639 117.594 252.415 117.371 252.139 117.371H247.155ZM257.123 117.371C256.846 117.371 256.623 117.594 256.623 117.871C256.623 118.147 256.846 118.371 257.123 118.371H262.107C262.383 118.371 262.607 118.147 262.607 117.871C262.607 117.594 262.383 117.371 262.107 117.371H257.123ZM267.09 117.371C266.814 117.371 266.59 117.594 266.59 117.871C266.59 118.147 266.814 118.371 267.09 118.371H272.074C272.35 118.371 272.574 118.147 272.574 117.871C272.574 117.594 272.35 117.371 272.074 117.371H267.09ZM277.058 117.371C276.782 117.371 276.558 117.594 276.558 117.871C276.558 118.147 276.782 118.371 277.058 118.371H282.042C282.318 118.371 282.542 118.147 282.542 117.871C282.542 117.594 282.318 117.371 282.042 117.371H277.058ZM287.026 117.371C286.75 117.371 286.526 117.594 286.526 117.871C286.526 118.147 286.75 118.371 287.026 118.371H292.01C292.286 118.371 292.51 118.147 292.51 117.871C292.51 117.594 292.286 117.371 292.01 117.371H287.026ZM296.994 117.371C296.718 117.371 296.494 117.594 296.494 117.871C296.494 118.147 296.718 118.371 296.994 118.371H301.978C302.254 118.371 302.478 118.147 302.478 117.871C302.478 117.594 302.254 117.371 301.978 117.371H296.994ZM306.961 117.371C306.685 117.371 306.461 117.594 306.461 117.871C306.461 118.147 306.685 118.371 306.961 118.371H309.453C309.73 118.371 309.953 118.147 309.953 117.871C309.953 117.594 309.73 117.371 309.453 117.371H306.961ZM-0.046875 158.544C-0.046875 158.268 0.176983 158.044 0.453125 158.044H2.94506C3.2212 158.044 3.44506 158.268 3.44506 158.544C3.44506 158.82 3.2212 159.044 2.94506 159.044H0.453125C0.176983 159.044 -0.046875 158.82 -0.046875 158.544ZM7.42894 158.544C7.42894 158.268 7.6528 158.044 7.92894 158.044H12.9128C13.189 158.044 13.4128 158.268 13.4128 158.544C13.4128 158.82 13.189 159.044 12.9128 159.044H7.92894C7.6528 159.044 7.42894 158.82 7.42894 158.544ZM17.3967 158.544C17.3967 158.268 17.6205 158.044 17.8967 158.044H22.8806C23.1567 158.044 23.3806 158.268 23.3806 158.544C23.3806 158.82 23.1567 159.044 22.8806 159.044H17.8967C17.6205 159.044 17.3967 158.82 17.3967 158.544ZM27.3644 158.544C27.3644 158.268 27.5883 158.044 27.8644 158.044H32.8483C33.1245 158.044 33.3483 158.268 33.3483 158.544C33.3483 158.82 33.1245 159.044 32.8483 159.044H27.8644C27.5883 159.044 27.3644 158.82 27.3644 158.544ZM37.3322 158.544C37.3322 158.268 37.556 158.044 37.8322 158.044H42.8161C43.0922 158.044 43.3161 158.268 43.3161 158.544C43.3161 158.82 43.0922 159.044 42.8161 159.044H37.8322C37.556 159.044 37.3322 158.82 37.3322 158.544ZM47.2999 158.544C47.2999 158.268 47.5238 158.044 47.7999 158.044H52.7838C53.06 158.044 53.2838 158.268 53.2838 158.544C53.2838 158.82 53.06 159.044 52.7838 159.044H47.7999C47.5238 159.044 47.2999 158.82 47.2999 158.544ZM57.2677 158.544C57.2677 158.268 57.4916 158.044 57.7677 158.044H62.7516C63.0277 158.044 63.2516 158.268 63.2516 158.544C63.2516 158.82 63.0277 159.044 62.7516 159.044H57.7677C57.4916 159.044 57.2677 158.82 57.2677 158.544ZM67.2354 158.544C67.2354 158.268 67.4593 158.044 67.7354 158.044H72.7193C72.9955 158.044 73.2193 158.268 73.2193 158.544C73.2193 158.82 72.9955 159.044 72.7193 159.044H67.7354C67.4593 159.044 67.2354 158.82 67.2354 158.544ZM77.2032 158.544C77.2032 158.268 77.4271 158.044 77.7032 158.044H82.6871C82.9632 158.044 83.1871 158.268 83.1871 158.544C83.1871 158.82 82.9632 159.044 82.6871 159.044H77.7032C77.4271 159.044 77.2032 158.82 77.2032 158.544ZM87.171 158.544C87.171 158.268 87.3948 158.044 87.671 158.044H92.6548C92.931 158.044 93.1548 158.268 93.1548 158.544C93.1548 158.82 92.931 159.044 92.6548 159.044H87.671C87.3948 159.044 87.171 158.82 87.171 158.544ZM97.1387 158.544C97.1387 158.268 97.3626 158.044 97.6387 158.044H102.623C102.899 158.044 103.123 158.268 103.123 158.544C103.123 158.82 102.899 159.044 102.623 159.044H97.6387C97.3626 159.044 97.1387 158.82 97.1387 158.544ZM107.106 158.544C107.106 158.268 107.33 158.044 107.606 158.044H112.59C112.866 158.044 113.09 158.268 113.09 158.544C113.09 158.82 112.866 159.044 112.59 159.044H107.606C107.33 159.044 107.106 158.82 107.106 158.544ZM117.074 158.544C117.074 158.268 117.298 158.044 117.574 158.044H122.558C122.834 158.044 123.058 158.268 123.058 158.544C123.058 158.82 122.834 159.044 122.558 159.044H117.574C117.298 159.044 117.074 158.82 117.074 158.544ZM127.042 158.544C127.042 158.268 127.266 158.044 127.542 158.044H132.526C132.802 158.044 133.026 158.268 133.026 158.544C133.026 158.82 132.802 159.044 132.526 159.044H127.542C127.266 159.044 127.042 158.82 127.042 158.544ZM137.01 158.544C137.01 158.268 137.234 158.044 137.51 158.044H142.494C142.77 158.044 142.994 158.268 142.994 158.544C142.994 158.82 142.77 159.044 142.494 159.044H137.51C137.234 159.044 137.01 158.82 137.01 158.544ZM146.977 158.544C146.977 158.268 147.201 158.044 147.477 158.044H152.461C152.737 158.044 152.961 158.268 152.961 158.544C152.961 158.82 152.737 159.044 152.461 159.044H147.477C147.201 159.044 146.977 158.82 146.977 158.544ZM156.945 158.544C156.945 158.268 157.169 158.044 157.445 158.044H162.429C162.705 158.044 162.929 158.268 162.929 158.544C162.929 158.82 162.705 159.044 162.429 159.044H157.445C157.169 159.044 156.945 158.82 156.945 158.544ZM166.913 158.544C166.913 158.268 167.137 158.044 167.413 158.044H172.397C172.673 158.044 172.897 158.268 172.897 158.544C172.897 158.82 172.673 159.044 172.397 159.044H167.413C167.137 159.044 166.913 158.82 166.913 158.544ZM176.881 158.544C176.881 158.268 177.105 158.044 177.381 158.044H182.365C182.641 158.044 182.865 158.268 182.865 158.544C182.865 158.82 182.641 159.044 182.365 159.044H177.381C177.105 159.044 176.881 158.82 176.881 158.544ZM186.848 158.544C186.848 158.268 187.072 158.044 187.348 158.044H192.332C192.608 158.044 192.832 158.268 192.832 158.544C192.832 158.82 192.608 159.044 192.332 159.044H187.348C187.072 159.044 186.848 158.82 186.848 158.544ZM196.816 158.544C196.816 158.268 197.04 158.044 197.316 158.044H202.3C202.576 158.044 202.8 158.268 202.8 158.544C202.8 158.82 202.576 159.044 202.3 159.044H197.316C197.04 159.044 196.816 158.82 196.816 158.544ZM206.784 158.544C206.784 158.268 207.008 158.044 207.284 158.044H212.268C212.544 158.044 212.768 158.268 212.768 158.544C212.768 158.82 212.544 159.044 212.268 159.044H207.284C207.008 159.044 206.784 158.82 206.784 158.544ZM216.752 158.544C216.752 158.268 216.976 158.044 217.252 158.044H222.236C222.512 158.044 222.736 158.268 222.736 158.544C222.736 158.82 222.512 159.044 222.236 159.044H217.252C216.976 159.044 216.752 158.82 216.752 158.544ZM226.719 158.544C226.719 158.268 226.943 158.044 227.219 158.044H232.203C232.479 158.044 232.703 158.268 232.703 158.544C232.703 158.82 232.479 159.044 232.203 159.044H227.219C226.943 159.044 226.719 158.82 226.719 158.544ZM236.687 158.544C236.687 158.268 236.911 158.044 237.187 158.044H242.171C242.447 158.044 242.671 158.268 242.671 158.544C242.671 158.82 242.447 159.044 242.171 159.044H237.187C236.911 159.044 236.687 158.82 236.687 158.544ZM246.655 158.544C246.655 158.268 246.879 158.044 247.155 158.044H252.139C252.415 158.044 252.639 158.268 252.639 158.544C252.639 158.82 252.415 159.044 252.139 159.044H247.155C246.879 159.044 246.655 158.82 246.655 158.544ZM256.623 158.544C256.623 158.268 256.846 158.044 257.123 158.044H262.107C262.383 158.044 262.607 158.268 262.607 158.544C262.607 158.82 262.383 159.044 262.107 159.044H257.123C256.846 159.044 256.623 158.82 256.623 158.544ZM266.59 158.544C266.59 158.268 266.814 158.044 267.09 158.044H272.074C272.35 158.044 272.574 158.268 272.574 158.544C272.574 158.82 272.35 159.044 272.074 159.044H267.09C266.814 159.044 266.59 158.82 266.59 158.544ZM276.558 158.544C276.558 158.268 276.782 158.044 277.058 158.044H282.042C282.318 158.044 282.542 158.268 282.542 158.544C282.542 158.82 282.318 159.044 282.042 159.044H277.058C276.782 159.044 276.558 158.82 276.558 158.544ZM286.526 158.544C286.526 158.268 286.75 158.044 287.026 158.044H292.01C292.286 158.044 292.51 158.268 292.51 158.544C292.51 158.82 292.286 159.044 292.01 159.044H287.026C286.75 159.044 286.526 158.82 286.526 158.544ZM296.494 158.544C296.494 158.268 296.718 158.044 296.994 158.044H301.978C302.254 158.044 302.478 158.268 302.478 158.544C302.478 158.82 302.254 159.044 301.978 159.044H296.994C296.718 159.044 296.494 158.82 296.494 158.544ZM306.461 158.544C306.461 158.268 306.685 158.044 306.961 158.044H309.453C309.73 158.044 309.953 158.268 309.953 158.544C309.953 158.82 309.73 159.044 309.453 159.044H306.961C306.685 159.044 306.461 158.82 306.461 158.544ZM0.453125 198.717C0.176983 198.717 -0.046875 198.941 -0.046875 199.217C-0.046875 199.493 0.176983 199.717 0.453125 199.717H2.94506C3.2212 199.717 3.44506 199.493 3.44506 199.217C3.44506 198.941 3.2212 198.717 2.94506 198.717H0.453125ZM7.92894 198.717C7.6528 198.717 7.42894 198.941 7.42894 199.217C7.42894 199.493 7.6528 199.717 7.92894 199.717H12.9128C13.189 199.717 13.4128 199.493 13.4128 199.217C13.4128 198.941 13.189 198.717 12.9128 198.717H7.92894ZM17.8967 198.717C17.6205 198.717 17.3967 198.941 17.3967 199.217C17.3967 199.493 17.6205 199.717 17.8967 199.717H22.8806C23.1567 199.717 23.3806 199.493 23.3806 199.217C23.3806 198.941 23.1567 198.717 22.8806 198.717H17.8967ZM27.8644 198.717C27.5883 198.717 27.3644 198.941 27.3644 199.217C27.3644 199.493 27.5883 199.717 27.8644 199.717H32.8483C33.1245 199.717 33.3483 199.493 33.3483 199.217C33.3483 198.941 33.1245 198.717 32.8483 198.717H27.8644ZM37.8322 198.717C37.556 198.717 37.3322 198.941 37.3322 199.217C37.3322 199.493 37.556 199.717 37.8322 199.717H42.8161C43.0922 199.717 43.3161 199.493 43.3161 199.217C43.3161 198.941 43.0922 198.717 42.8161 198.717H37.8322ZM47.7999 198.717C47.5238 198.717 47.2999 198.941 47.2999 199.217C47.2999 199.493 47.5238 199.717 47.7999 199.717H52.7838C53.06 199.717 53.2838 199.493 53.2838 199.217C53.2838 198.941 53.06 198.717 52.7838 198.717H47.7999ZM57.7677 198.717C57.4916 198.717 57.2677 198.941 57.2677 199.217C57.2677 199.493 57.4916 199.717 57.7677 199.717H62.7516C63.0277 199.717 63.2516 199.493 63.2516 199.217C63.2516 198.941 63.0277 198.717 62.7516 198.717H57.7677ZM67.7354 198.717C67.4593 198.717 67.2354 198.941 67.2354 199.217C67.2354 199.493 67.4593 199.717 67.7354 199.717H72.7193C72.9955 199.717 73.2193 199.493 73.2193 199.217C73.2193 198.941 72.9955 198.717 72.7193 198.717H67.7354ZM77.7032 198.717C77.4271 198.717 77.2032 198.941 77.2032 199.217C77.2032 199.493 77.4271 199.717 77.7032 199.717H82.6871C82.9632 199.717 83.1871 199.493 83.1871 199.217C83.1871 198.941 82.9632 198.717 82.6871 198.717H77.7032ZM87.671 198.717C87.3948 198.717 87.171 198.941 87.171 199.217C87.171 199.493 87.3948 199.717 87.671 199.717H92.6548C92.931 199.717 93.1548 199.493 93.1548 199.217C93.1548 198.941 92.931 198.717 92.6548 198.717H87.671ZM97.6387 198.717C97.3626 198.717 97.1387 198.941 97.1387 199.217C97.1387 199.493 97.3626 199.717 97.6387 199.717H102.623C102.899 199.717 103.123 199.493 103.123 199.217C103.123 198.941 102.899 198.717 102.623 198.717H97.6387ZM107.606 198.717C107.33 198.717 107.106 198.941 107.106 199.217C107.106 199.493 107.33 199.717 107.606 199.717H112.59C112.866 199.717 113.09 199.493 113.09 199.217C113.09 198.941 112.866 198.717 112.59 198.717H107.606ZM117.574 198.717C117.298 198.717 117.074 198.941 117.074 199.217C117.074 199.493 117.298 199.717 117.574 199.717H122.558C122.834 199.717 123.058 199.493 123.058 199.217C123.058 198.941 122.834 198.717 122.558 198.717H117.574ZM127.542 198.717C127.266 198.717 127.042 198.941 127.042 199.217C127.042 199.493 127.266 199.717 127.542 199.717H132.526C132.802 199.717 133.026 199.493 133.026 199.217C133.026 198.941 132.802 198.717 132.526 198.717H127.542ZM137.51 198.717C137.234 198.717 137.01 198.941 137.01 199.217C137.01 199.493 137.234 199.717 137.51 199.717H142.494C142.77 199.717 142.994 199.493 142.994 199.217C142.994 198.941 142.77 198.717 142.494 198.717H137.51ZM147.477 198.717C147.201 198.717 146.977 198.941 146.977 199.217C146.977 199.493 147.201 199.717 147.477 199.717H152.461C152.737 199.717 152.961 199.493 152.961 199.217C152.961 198.941 152.737 198.717 152.461 198.717H147.477ZM157.445 198.717C157.169 198.717 156.945 198.941 156.945 199.217C156.945 199.493 157.169 199.717 157.445 199.717H162.429C162.705 199.717 162.929 199.493 162.929 199.217C162.929 198.941 162.705 198.717 162.429 198.717H157.445ZM167.413 198.717C167.137 198.717 166.913 198.941 166.913 199.217C166.913 199.493 167.137 199.717 167.413 199.717H172.397C172.673 199.717 172.897 199.493 172.897 199.217C172.897 198.941 172.673 198.717 172.397 198.717H167.413ZM177.381 198.717C177.105 198.717 176.881 198.941 176.881 199.217C176.881 199.493 177.105 199.717 177.381 199.717H182.365C182.641 199.717 182.865 199.493 182.865 199.217C182.865 198.941 182.641 198.717 182.365 198.717H177.381ZM187.348 198.717C187.072 198.717 186.848 198.941 186.848 199.217C186.848 199.493 187.072 199.717 187.348 199.717H192.332C192.608 199.717 192.832 199.493 192.832 199.217C192.832 198.941 192.608 198.717 192.332 198.717H187.348ZM197.316 198.717C197.04 198.717 196.816 198.941 196.816 199.217C196.816 199.493 197.04 199.717 197.316 199.717H202.3C202.576 199.717 202.8 199.493 202.8 199.217C202.8 198.941 202.576 198.717 202.3 198.717H197.316ZM207.284 198.717C207.008 198.717 206.784 198.941 206.784 199.217C206.784 199.493 207.008 199.717 207.284 199.717H212.268C212.544 199.717 212.768 199.493 212.768 199.217C212.768 198.941 212.544 198.717 212.268 198.717H207.284ZM217.252 198.717C216.976 198.717 216.752 198.941 216.752 199.217C216.752 199.493 216.976 199.717 217.252 199.717H222.236C222.512 199.717 222.736 199.493 222.736 199.217C222.736 198.941 222.512 198.717 222.236 198.717H217.252ZM227.219 198.717C226.943 198.717 226.719 198.941 226.719 199.217C226.719 199.493 226.943 199.717 227.219 199.717H232.203C232.479 199.717 232.703 199.493 232.703 199.217C232.703 198.941 232.479 198.717 232.203 198.717H227.219ZM237.187 198.717C236.911 198.717 236.687 198.941 236.687 199.217C236.687 199.493 236.911 199.717 237.187 199.717H242.171C242.447 199.717 242.671 199.493 242.671 199.217C242.671 198.941 242.447 198.717 242.171 198.717H237.187ZM247.155 198.717C246.879 198.717 246.655 198.941 246.655 199.217C246.655 199.493 246.879 199.717 247.155 199.717H252.139C252.415 199.717 252.639 199.493 252.639 199.217C252.639 198.941 252.415 198.717 252.139 198.717H247.155ZM257.123 198.717C256.846 198.717 256.623 198.941 256.623 199.217C256.623 199.493 256.846 199.717 257.123 199.717H262.107C262.383 199.717 262.607 199.493 262.607 199.217C262.607 198.941 262.383 198.717 262.107 198.717H257.123ZM267.09 198.717C266.814 198.717 266.59 198.941 266.59 199.217C266.59 199.493 266.814 199.717 267.09 199.717H272.074C272.35 199.717 272.574 199.493 272.574 199.217C272.574 198.941 272.35 198.717 272.074 198.717H267.09ZM277.058 198.717C276.782 198.717 276.558 198.941 276.558 199.217C276.558 199.493 276.782 199.717 277.058 199.717H282.042C282.318 199.717 282.542 199.493 282.542 199.217C282.542 198.941 282.318 198.717 282.042 198.717H277.058ZM287.026 198.717C286.75 198.717 286.526 198.941 286.526 199.217C286.526 199.493 286.75 199.717 287.026 199.717H292.01C292.286 199.717 292.51 199.493 292.51 199.217C292.51 198.941 292.286 198.717 292.01 198.717H287.026ZM296.994 198.717C296.718 198.717 296.494 198.941 296.494 199.217C296.494 199.493 296.718 199.717 296.994 199.717H301.978C302.254 199.717 302.478 199.493 302.478 199.217C302.478 198.941 302.254 198.717 301.978 198.717H296.994ZM306.961 198.717C306.685 198.717 306.461 198.941 306.461 199.217C306.461 199.493 306.685 199.717 306.961 199.717H309.453C309.73 199.717 309.953 199.493 309.953 199.217C309.953 198.941 309.73 198.717 309.453 198.717H306.961Z" fill="#8C8C8C" class="HcoFrPZx_2"></path>
<path stroke="url(#paint0_linear_34_2268)" stroke-width="41" d="M36.5,234L36.5,194" class="HcoFrPZx_3"></path>
<path stroke="url(#paint1_linear_34_2268)" stroke-width="41" d="M96.5,234L96.5,164" class="HcoFrPZx_4"></path>
<path stroke="url(#paint2_linear_34_2268)" stroke-width="41" d="M156.5,234L156.5,104" class="HcoFrPZx_5"></path>
<path stroke="url(#paint3_linear_34_2268)" stroke-width="41" d="M216.5,234L216.5,44" class="HcoFrPZx_6"></path>
<path d="M205.656 27.816C206.381 27.816 207.021 27.9493 207.576 28.216C208.131 28.472 208.563 28.856 208.872 29.368C209.192 29.88 209.352 30.504 209.352 31.24C209.352 32.456 208.968 33.416 208.2 34.12C207.443 34.8133 206.344 35.16 204.904 35.16C204.307 35.16 203.747 35.1067 203.224 35C202.701 34.8933 202.248 34.7387 201.864 34.536V32.744C202.259 32.9573 202.733 33.1333 203.288 33.272C203.843 33.4107 204.365 33.48 204.856 33.48C205.613 33.48 206.205 33.3147 206.632 32.984C207.069 32.6533 207.288 32.136 207.288 31.432C207.288 30.8027 207.085 30.3227 206.68 29.992C206.275 29.6507 205.645 29.48 204.792 29.48C204.493 29.48 204.168 29.5067 203.816 29.56C203.475 29.6133 203.192 29.6667 202.968 29.72L202.104 29.24L202.536 23.576H208.552V25.336H204.312L204.072 27.976C204.253 27.944 204.467 27.912 204.712 27.88C204.957 27.8373 205.272 27.816 205.656 27.816ZM219.02 32.552H217.532V35H215.548V32.552H210.46V31.048L215.596 23.544H217.532V30.904H219.02V32.552ZM215.548 28.344C215.548 28.056 215.554 27.7467 215.564 27.416C215.575 27.0853 215.586 26.7813 215.596 26.504C215.618 26.216 215.634 25.9973 215.644 25.848H215.58C215.388 26.296 215.159 26.712 214.892 27.096L212.3 30.904H215.548V28.344ZM222.465 23.416C223.329 23.416 223.979 23.7307 224.417 24.36C224.865 24.9787 225.089 25.8533 225.089 26.984C225.089 28.1147 224.875 29 224.449 29.64C224.033 30.2693 223.371 30.584 222.465 30.584C221.633 30.584 220.998 30.2693 220.561 29.64C220.134 29 219.921 28.1147 219.921 26.984C219.921 25.8533 220.123 24.9787 220.529 24.36C220.934 23.7307 221.579 23.416 222.465 23.416ZM230.289 23.576L223.953 35H222.321L228.657 23.576H230.289ZM222.481 24.808C221.883 24.808 221.585 25.5387 221.585 27C221.585 28.4613 221.883 29.192 222.481 29.192C223.099 29.192 223.409 28.4613 223.409 27C223.409 25.5387 223.099 24.808 222.481 24.808ZM230.097 27.976C230.939 27.976 231.585 28.2907 232.033 28.92C232.481 29.5493 232.705 30.424 232.705 31.544C232.705 32.6747 232.491 33.56 232.065 34.2C231.649 34.8293 230.993 35.144 230.097 35.144C229.254 35.144 228.614 34.8293 228.177 34.2C227.75 33.56 227.536 32.6747 227.536 31.544C227.536 30.424 227.739 29.5493 228.145 28.92C228.561 28.2907 229.211 27.976 230.097 27.976ZM230.097 29.384C229.499 29.384 229.201 30.1093 229.201 31.56C229.201 33.032 229.499 33.768 230.097 33.768C230.726 33.768 231.041 33.032 231.041 31.56C231.041 30.1093 230.726 29.384 230.097 29.384Z" fill="black" class="HcoFrPZx_7"></path>
<path d="M267.4 198.088C268.552 198.088 269.464 198.381 270.136 198.968C270.819 199.544 271.16 200.365 271.16 201.432C271.16 202.595 270.787 203.507 270.04 204.168C269.293 204.829 268.285 205.16 267.016 205.16C266.408 205.16 265.853 205.101 265.352 204.984C264.861 204.867 264.445 204.707 264.104 204.504V203.608C264.467 203.832 264.904 204.013 265.416 204.152C265.939 204.291 266.472 204.36 267.016 204.36C267.976 204.36 268.749 204.12 269.336 203.64C269.933 203.149 270.232 202.44 270.232 201.512C270.232 200.68 269.976 200.035 269.464 199.576C268.963 199.107 268.195 198.872 267.16 198.872C266.765 198.872 266.371 198.904 265.976 198.968C265.592 199.032 265.245 199.101 264.936 199.176L264.424 198.84L264.888 193.576H270.424V194.408H265.672L265.336 198.328C265.56 198.285 265.843 198.237 266.184 198.184C266.525 198.12 266.931 198.088 267.4 198.088ZM275.277 193.416C276.034 193.416 276.605 193.725 276.989 194.344C277.373 194.963 277.565 195.843 277.565 196.984C277.565 198.147 277.367 199.037 276.973 199.656C276.589 200.275 276.018 200.584 275.261 200.584C274.525 200.584 273.965 200.275 273.581 199.656C273.197 199.027 273.005 198.136 273.005 196.984C273.005 195.832 273.197 194.952 273.581 194.344C273.965 193.725 274.53 193.416 275.277 193.416ZM282.237 193.576L275.901 205H275.053L281.389 193.576H282.237ZM275.277 194.104C274.295 194.104 273.805 195.064 273.805 196.984C273.805 198.915 274.29 199.88 275.261 199.88C276.263 199.88 276.765 198.915 276.765 196.984C276.765 196.045 276.642 195.331 276.397 194.84C276.162 194.349 275.789 194.104 275.277 194.104ZM281.981 197.992C282.738 197.992 283.309 198.301 283.693 198.92C284.077 199.539 284.269 200.419 284.269 201.56C284.269 202.723 284.071 203.613 283.677 204.232C283.293 204.851 282.722 205.16 281.965 205.16C281.229 205.16 280.669 204.851 280.285 204.232C279.901 203.603 279.709 202.712 279.709 201.56C279.709 200.408 279.901 199.528 280.285 198.92C280.669 198.301 281.234 197.992 281.981 197.992ZM281.981 198.696C280.999 198.696 280.509 199.651 280.509 201.56C280.509 203.491 280.994 204.456 281.965 204.456C282.967 204.456 283.469 203.491 283.469 201.56C283.469 200.621 283.346 199.912 283.101 199.432C282.866 198.941 282.493 198.696 281.981 198.696Z" fill="black" class="HcoFrPZx_8"></path>
<path d="M150.096 95H142.864V94.232L146.144 90.824C146.688 90.2587 147.147 89.752 147.52 89.304C147.893 88.856 148.176 88.408 148.368 87.96C148.56 87.512 148.656 87.0107 148.656 86.456C148.656 85.7413 148.448 85.192 148.032 84.808C147.616 84.4133 147.056 84.216 146.352 84.216C145.84 84.216 145.36 84.3067 144.912 84.488C144.464 84.6693 144.021 84.9307 143.584 85.272L143.088 84.632C143.557 84.248 144.069 83.9493 144.624 83.736C145.179 83.5227 145.755 83.416 146.352 83.416C147.333 83.416 148.117 83.688 148.704 84.232C149.301 84.776 149.6 85.5013 149.6 86.408C149.6 87.0267 149.488 87.592 149.264 88.104C149.04 88.616 148.725 89.1173 148.32 89.608C147.915 90.0987 147.44 90.6213 146.896 91.176L144.032 94.12V94.152H150.096V95ZM159.381 89.256C159.381 91.1547 159.087 92.616 158.501 93.64C157.914 94.6533 156.981 95.16 155.701 95.16C154.495 95.16 153.583 94.6587 152.965 93.656C152.346 92.6533 152.037 91.1867 152.037 89.256C152.037 88.0827 152.154 87.0587 152.389 86.184C152.623 85.3093 153.013 84.6267 153.557 84.136C154.101 83.6453 154.821 83.4 155.717 83.4C156.591 83.4 157.295 83.64 157.829 84.12C158.373 84.6 158.767 85.2773 159.013 86.152C159.258 87.0267 159.381 88.0613 159.381 89.256ZM152.949 89.256C152.949 90.984 153.167 92.2693 153.605 93.112C154.053 93.944 154.751 94.36 155.701 94.36C156.682 94.36 157.386 93.9387 157.813 93.096C158.239 92.2533 158.453 90.9733 158.453 89.256C158.453 88.1893 158.367 87.2827 158.197 86.536C158.037 85.7787 157.754 85.2027 157.349 84.808C156.954 84.4027 156.41 84.2 155.717 84.2C155.023 84.2 154.474 84.4027 154.069 84.808C153.674 85.2133 153.386 85.7947 153.205 86.552C153.034 87.3093 152.949 88.2107 152.949 89.256ZM163.417 83.416C164.175 83.416 164.745 83.7253 165.129 84.344C165.513 84.9627 165.705 85.8427 165.705 86.984C165.705 88.1467 165.508 89.0373 165.113 89.656C164.729 90.2747 164.159 90.584 163.401 90.584C162.665 90.584 162.105 90.2747 161.721 89.656C161.337 89.0267 161.145 88.136 161.145 86.984C161.145 85.832 161.337 84.952 161.721 84.344C162.105 83.7253 162.671 83.416 163.417 83.416ZM170.377 83.576L164.041 95H163.193L169.529 83.576H170.377ZM163.417 84.104C162.436 84.104 161.945 85.064 161.945 86.984C161.945 88.9147 162.431 89.88 163.401 89.88C164.404 89.88 164.905 88.9147 164.905 86.984C164.905 86.0453 164.783 85.3307 164.537 84.84C164.303 84.3493 163.929 84.104 163.417 84.104ZM170.121 87.992C170.879 87.992 171.449 88.3013 171.833 88.92C172.217 89.5387 172.409 90.4187 172.409 91.56C172.409 92.7227 172.212 93.6133 171.817 94.232C171.433 94.8507 170.863 95.16 170.105 95.16C169.369 95.16 168.809 94.8507 168.425 94.232C168.041 93.6027 167.849 92.712 167.849 91.56C167.849 90.408 168.041 89.528 168.425 88.92C168.809 88.3013 169.375 87.992 170.121 87.992ZM170.121 88.696C169.14 88.696 168.649 89.6507 168.649 91.56C168.649 93.4907 169.135 94.456 170.105 94.456C171.108 94.456 171.609 93.4907 171.609 91.56C171.609 90.6213 171.487 89.912 171.241 89.432C171.007 88.9413 170.633 88.696 170.121 88.696Z" fill="black" class="HcoFrPZx_9"></path>
<path d="M86.408 155H85.512V146.504C85.512 146.045 85.512 145.672 85.512 145.384C85.5227 145.085 85.5333 144.803 85.544 144.536C85.3947 144.685 85.2507 144.813 85.112 144.92C84.984 145.027 84.8187 145.16 84.616 145.32L83.032 146.552L82.536 145.912L85.64 143.576H86.408V155ZM98.2366 155H91.0046V154.232L94.2846 150.824C94.8286 150.259 95.2873 149.752 95.6606 149.304C96.034 148.856 96.3166 148.408 96.5086 147.96C96.7006 147.512 96.7966 147.011 96.7966 146.456C96.7966 145.741 96.5886 145.192 96.1726 144.808C95.7566 144.413 95.1966 144.216 94.4926 144.216C93.9806 144.216 93.5006 144.307 93.0526 144.488C92.6046 144.669 92.162 144.931 91.7246 145.272L91.2286 144.632C91.698 144.248 92.21 143.949 92.7646 143.736C93.3193 143.523 93.8953 143.416 94.4926 143.416C95.474 143.416 96.258 143.688 96.8446 144.232C97.442 144.776 97.7406 145.501 97.7406 146.408C97.7406 147.027 97.6286 147.592 97.4046 148.104C97.1806 148.616 96.866 149.117 96.4606 149.608C96.0553 150.099 95.5806 150.621 95.0366 151.176L92.1726 154.12V154.152H98.2366V155ZM102.417 143.416C103.175 143.416 103.745 143.725 104.129 144.344C104.513 144.963 104.705 145.843 104.705 146.984C104.705 148.147 104.508 149.037 104.113 149.656C103.729 150.275 103.159 150.584 102.401 150.584C101.665 150.584 101.105 150.275 100.721 149.656C100.337 149.027 100.145 148.136 100.145 146.984C100.145 145.832 100.337 144.952 100.721 144.344C101.105 143.725 101.671 143.416 102.417 143.416ZM109.377 143.576L103.041 155H102.193L108.529 143.576H109.377ZM102.417 144.104C101.436 144.104 100.945 145.064 100.945 146.984C100.945 148.915 101.431 149.88 102.401 149.88C103.404 149.88 103.905 148.915 103.905 146.984C103.905 146.045 103.783 145.331 103.537 144.84C103.303 144.349 102.929 144.104 102.417 144.104ZM109.121 147.992C109.879 147.992 110.449 148.301 110.833 148.92C111.217 149.539 111.409 150.419 111.409 151.56C111.409 152.723 111.212 153.613 110.817 154.232C110.433 154.851 109.863 155.16 109.105 155.16C108.369 155.16 107.809 154.851 107.425 154.232C107.041 153.603 106.849 152.712 106.849 151.56C106.849 150.408 107.041 149.528 107.425 148.92C107.809 148.301 108.375 147.992 109.121 147.992ZM109.121 148.696C108.14 148.696 107.649 149.651 107.649 151.56C107.649 153.491 108.135 154.456 109.105 154.456C110.108 154.456 110.609 153.491 110.609 151.56C110.609 150.621 110.487 149.912 110.241 149.432C110.007 148.941 109.633 148.696 109.121 148.696Z" fill="black" class="HcoFrPZx_10"></path>
<path d="M34.16 178.424C34.16 179.789 33.984 180.979 33.632 181.992C33.2907 182.995 32.752 183.779 32.016 184.344C31.28 184.899 30.3253 185.176 29.152 185.176C28.8853 185.176 28.6027 185.16 28.304 185.128C28.0053 185.096 27.76 185.048 27.568 184.984V184.168C27.76 184.232 27.9947 184.285 28.272 184.328C28.56 184.371 28.848 184.392 29.136 184.392C30.5013 184.392 31.5147 183.928 32.176 183C32.848 182.072 33.2053 180.755 33.248 179.048H33.184C32.96 179.464 32.5973 179.837 32.096 180.168C31.5947 180.499 30.944 180.664 30.144 180.664C29.12 180.664 28.3147 180.36 27.728 179.752C27.1413 179.133 26.848 178.285 26.848 177.208C26.848 176.056 27.1627 175.139 27.792 174.456C28.4213 173.763 29.2853 173.416 30.384 173.416C31.2053 173.416 31.8933 173.629 32.448 174.056C33.0133 174.483 33.44 175.075 33.728 175.832C34.016 176.579 34.16 177.443 34.16 178.424ZM30.384 174.2C29.5627 174.2 28.9173 174.461 28.448 174.984C27.9893 175.496 27.76 176.232 27.76 177.192C27.76 178.035 27.968 178.701 28.384 179.192C28.8 179.672 29.44 179.912 30.304 179.912C30.9013 179.912 31.4133 179.795 31.84 179.56C32.2773 179.315 32.6133 179.016 32.848 178.664C33.0827 178.301 33.2 177.944 33.2 177.592C33.2 177.272 33.1467 176.92 33.04 176.536C32.944 176.141 32.7893 175.768 32.576 175.416C32.3627 175.064 32.0747 174.776 31.712 174.552C31.3493 174.317 30.9067 174.2 30.384 174.2ZM38.2766 173.416C39.034 173.416 39.6046 173.725 39.9886 174.344C40.3726 174.963 40.5646 175.843 40.5646 176.984C40.5646 178.147 40.3673 179.037 39.9726 179.656C39.5886 180.275 39.018 180.584 38.2606 180.584C37.5246 180.584 36.9646 180.275 36.5806 179.656C36.1966 179.027 36.0046 178.136 36.0046 176.984C36.0046 175.832 36.1966 174.952 36.5806 174.344C36.9646 173.725 37.53 173.416 38.2766 173.416ZM45.2366 173.576L38.9006 185H38.0526L44.3886 173.576H45.2366ZM38.2766 174.104C37.2953 174.104 36.8046 175.064 36.8046 176.984C36.8046 178.915 37.29 179.88 38.2606 179.88C39.2633 179.88 39.7646 178.915 39.7646 176.984C39.7646 176.045 39.642 175.331 39.3966 174.84C39.162 174.349 38.7886 174.104 38.2766 174.104ZM44.9806 177.992C45.738 177.992 46.3086 178.301 46.6926 178.92C47.0766 179.539 47.2686 180.419 47.2686 181.56C47.2686 182.723 47.0713 183.613 46.6766 184.232C46.2926 184.851 45.722 185.16 44.9646 185.16C44.2286 185.16 43.6686 184.851 43.2846 184.232C42.9006 183.603 42.7086 182.712 42.7086 181.56C42.7086 180.408 42.9006 179.528 43.2846 178.92C43.6686 178.301 44.234 177.992 44.9806 177.992ZM44.9806 178.696C43.9993 178.696 43.5086 179.651 43.5086 181.56C43.5086 183.491 43.994 184.456 44.9646 184.456C45.9673 184.456 46.4686 183.491 46.4686 181.56C46.4686 180.621 46.346 179.912 46.1006 179.432C45.866 178.941 45.4926 178.696 44.9806 178.696Z" fill="black" class="HcoFrPZx_11"></path>
<path stroke="url(#paint4_linear_34_2268)" stroke-width="41" d="M274.5,234L274.5,214" class="HcoFrPZx_12"></path>
</g>
<defs>
<linearGradient id="paint0_linear_34_2268" x1="58" y1="234" x2="58" y2="194" gradientUnits="userSpaceOnUse">
<stop stop-color="#98D750"></stop>
<stop offset="1" stop-color="#39B54A"></stop>
</linearGradient>
<linearGradient id="paint1_linear_34_2268" x1="118" y1="234" x2="118" y2="164" gradientUnits="userSpaceOnUse">
<stop stop-color="#98D750"></stop>
<stop offset="1" stop-color="#39B54A"></stop>
</linearGradient>
<linearGradient id="paint2_linear_34_2268" x1="178" y1="234" x2="178" y2="104" gradientUnits="userSpaceOnUse">
<stop stop-color="#98D750"></stop>
<stop offset="1" stop-color="#39B54A"></stop>
</linearGradient>
<linearGradient id="paint3_linear_34_2268" x1="236" y1="231.889" x2="236" y2="44" gradientUnits="userSpaceOnUse">
<stop stop-color="#FF9F03"></stop>
<stop offset="1" stop-color="#C11A2A"></stop>
</linearGradient>
<linearGradient id="paint4_linear_34_2268" x1="296" y1="234" x2="296" y2="214" gradientUnits="userSpaceOnUse">
<stop stop-color="#98D750"></stop>
<stop offset="1" stop-color="#39B54A"></stop>
</linearGradient>
</defs>
<style data-made-with="vivus-instant">.HcoFrPZx_0{stroke-dasharray:1088 1090;stroke-dashoffset:1089;animation:HcoFrPZx_draw 2000ms linear 0ms forwards;}.HcoFrPZx_1{stroke-dasharray:1090 1092;stroke-dashoffset:1091;animation:HcoFrPZx_draw 2000ms linear 83ms forwards;}.HcoFrPZx_2{stroke-dasharray:2048 2050;stroke-dashoffset:2049;animation:HcoFrPZx_draw 2000ms linear 166ms forwards;}.HcoFrPZx_3{stroke-dasharray:40 42;stroke-dashoffset:41;animation:HcoFrPZx_draw 2000ms linear 250ms forwards;}.HcoFrPZx_4{stroke-dasharray:70 72;stroke-dashoffset:71;animation:HcoFrPZx_draw 2000ms linear 333ms forwards;}.HcoFrPZx_5{stroke-dasharray:130 132;stroke-dashoffset:131;animation:HcoFrPZx_draw 2000ms linear 416ms forwards;}.HcoFrPZx_6{stroke-dasharray:190 192;stroke-dashoffset:191;animation:HcoFrPZx_draw 2000ms linear 500ms forwards;}.HcoFrPZx_7{stroke-dasharray:194 196;stroke-dashoffset:195;animation:HcoFrPZx_draw 2000ms linear 583ms forwards;}.HcoFrPZx_8{stroke-dasharray:149 151;stroke-dashoffset:150;animation:HcoFrPZx_draw 2000ms linear 666ms forwards;}.HcoFrPZx_9{stroke-dasharray:204 206;stroke-dashoffset:205;animation:HcoFrPZx_draw 2000ms linear 750ms forwards;}.HcoFrPZx_10{stroke-dasharray:178 180;stroke-dashoffset:179;animation:HcoFrPZx_draw 2000ms linear 833ms forwards;}.HcoFrPZx_11{stroke-dasharray:157 159;stroke-dashoffset:158;animation:HcoFrPZx_draw 2000ms linear 916ms forwards;}.HcoFrPZx_12{stroke-dasharray:20 22;stroke-dashoffset:21;animation:HcoFrPZx_draw 2000ms linear 1000ms forwards;}@keyframes HcoFrPZx_draw{100%{stroke-dashoffset:0;}}@keyframes HcoFrPZx_fade{0%{stroke-opacity:1;}94.44444444444444%{stroke-opacity:1;}100%{stroke-opacity:0;}}</style></svg>
