<svg width="600" height="260" viewBox="0 0 600 260" fill="none" xmlns="http://www.w3.org/2000/svg" style="">
<mask id="mask0_16_1562" style="mask-type:alpha" maskUnits="userSpaceOnUse" x="0" y="0" width="600" height="260">
<path width="600" height="260" fill="#F6F6F6" d="M0 0 L600 0 L600 260 L0 260 Z" class="fsUDbZGx_0"></path>
</mask>
<g mask="url(#mask0_16_1562)">
<path width="600" height="260" fill="#F6F6F6" d="M0 0 L600 0 L600 260 L0 260 Z" class="fsUDbZGx_1"></path>
<path opacity="0.197516" fill-rule="evenodd" clip-rule="evenodd" d="M0.377197 41.5176C0.377197 41.2414 0.601055 41.0176 0.877197 41.0176H3.36989C3.64603 41.0176 3.86989 41.2414 3.86989 41.5176C3.86989 41.7937 3.64603 42.0176 3.36989 42.0176H0.877197C0.601055 42.0176 0.377197 41.7937 0.377197 41.5176ZM7.85527 41.5176C7.85527 41.2414 8.07912 41.0176 8.35527 41.0176H13.3406C13.6168 41.0176 13.8406 41.2414 13.8406 41.5176C13.8406 41.7937 13.6168 42.0176 13.3406 42.0176H8.35527C8.07912 42.0176 7.85527 41.7937 7.85527 41.5176ZM17.826 41.5176C17.826 41.2414 18.0499 41.0176 18.326 41.0176H23.3114C23.5875 41.0176 23.8114 41.2414 23.8114 41.5176C23.8114 41.7937 23.5875 42.0176 23.3114 42.0176H18.326C18.0499 42.0176 17.826 41.7937 17.826 41.5176ZM27.7968 41.5176C27.7968 41.2414 28.0206 41.0176 28.2968 41.0176H33.2822C33.5583 41.0176 33.7822 41.2414 33.7822 41.5176C33.7822 41.7937 33.5583 42.0176 33.2822 42.0176H28.2968C28.0206 42.0176 27.7968 41.7937 27.7968 41.5176ZM37.7675 41.5176C37.7675 41.2414 37.9914 41.0176 38.2675 41.0176H43.2529C43.5291 41.0176 43.7529 41.2414 43.7529 41.5176C43.7529 41.7937 43.5291 42.0176 43.2529 42.0176H38.2675C37.9914 42.0176 37.7675 41.7937 37.7675 41.5176ZM47.7383 41.5176C47.7383 41.2414 47.9622 41.0176 48.2383 41.0176H53.2237C53.4998 41.0176 53.7237 41.2414 53.7237 41.5176C53.7237 41.7937 53.4998 42.0176 53.2237 42.0176H48.2383C47.9622 42.0176 47.7383 41.7937 47.7383 41.5176ZM57.7091 41.5176C57.7091 41.2414 57.9329 41.0176 58.2091 41.0176H63.1945C63.4706 41.0176 63.6945 41.2414 63.6945 41.5176C63.6945 41.7937 63.4706 42.0176 63.1945 42.0176H58.2091C57.9329 42.0176 57.7091 41.7937 57.7091 41.5176ZM67.6798 41.5176C67.6798 41.2414 67.9037 41.0176 68.1798 41.0176H73.1652C73.4414 41.0176 73.6652 41.2414 73.6652 41.5176C73.6652 41.7937 73.4414 42.0176 73.1652 42.0176H68.1798C67.9037 42.0176 67.6798 41.7937 67.6798 41.5176ZM77.6506 41.5176C77.6506 41.2414 77.8745 41.0176 78.1506 41.0176H83.136C83.4121 41.0176 83.636 41.2414 83.636 41.5176C83.636 41.7937 83.4121 42.0176 83.136 42.0176H78.1506C77.8745 42.0176 77.6506 41.7937 77.6506 41.5176ZM87.6214 41.5176C87.6214 41.2414 87.8452 41.0176 88.1214 41.0176H93.1068C93.3829 41.0176 93.6068 41.2414 93.6068 41.5176C93.6068 41.7937 93.3829 42.0176 93.1068 42.0176H88.1214C87.8452 42.0176 87.6214 41.7937 87.6214 41.5176ZM97.5921 41.5176C97.5921 41.2414 97.816 41.0176 98.0921 41.0176H103.078C103.354 41.0176 103.578 41.2414 103.578 41.5176C103.578 41.7937 103.354 42.0176 103.078 42.0176H98.0921C97.816 42.0176 97.5921 41.7937 97.5921 41.5176ZM107.563 41.5176C107.563 41.2414 107.787 41.0176 108.063 41.0176H113.048C113.324 41.0176 113.548 41.2414 113.548 41.5176C113.548 41.7937 113.324 42.0176 113.048 42.0176H108.063C107.787 42.0176 107.563 41.7937 107.563 41.5176ZM117.534 41.5176C117.534 41.2414 117.758 41.0176 118.034 41.0176H123.019C123.295 41.0176 123.519 41.2414 123.519 41.5176C123.519 41.7937 123.295 42.0176 123.019 42.0176H118.034C117.758 42.0176 117.534 41.7937 117.534 41.5176ZM127.504 41.5176C127.504 41.2414 127.728 41.0176 128.004 41.0176H132.99C133.266 41.0176 133.49 41.2414 133.49 41.5176C133.49 41.7937 133.266 42.0176 132.99 42.0176H128.004C127.728 42.0176 127.504 41.7937 127.504 41.5176ZM137.475 41.5176C137.475 41.2414 137.699 41.0176 137.975 41.0176H142.961C143.237 41.0176 143.461 41.2414 143.461 41.5176C143.461 41.7937 143.237 42.0176 142.961 42.0176H137.975C137.699 42.0176 137.475 41.7937 137.475 41.5176ZM147.446 41.5176C147.446 41.2414 147.67 41.0176 147.946 41.0176H152.931C153.207 41.0176 153.431 41.2414 153.431 41.5176C153.431 41.7937 153.207 42.0176 152.931 42.0176H147.946C147.67 42.0176 147.446 41.7937 147.446 41.5176ZM157.417 41.5176C157.417 41.2414 157.641 41.0176 157.917 41.0176H162.902C163.178 41.0176 163.402 41.2414 163.402 41.5176C163.402 41.7937 163.178 42.0176 162.902 42.0176H157.917C157.641 42.0176 157.417 41.7937 157.417 41.5176ZM167.387 41.5176C167.387 41.2414 167.611 41.0176 167.887 41.0176H172.873C173.149 41.0176 173.373 41.2414 173.373 41.5176C173.373 41.7937 173.149 42.0176 172.873 42.0176H167.887C167.611 42.0176 167.387 41.7937 167.387 41.5176ZM177.358 41.5176C177.358 41.2414 177.582 41.0176 177.858 41.0176H182.844C183.12 41.0176 183.344 41.2414 183.344 41.5176C183.344 41.7937 183.12 42.0176 182.844 42.0176H177.858C177.582 42.0176 177.358 41.7937 177.358 41.5176ZM187.329 41.5176C187.329 41.2414 187.553 41.0176 187.829 41.0176H192.814C193.091 41.0176 193.314 41.2414 193.314 41.5176C193.314 41.7937 193.091 42.0176 192.814 42.0176H187.829C187.553 42.0176 187.329 41.7937 187.329 41.5176ZM197.3 41.5176C197.3 41.2414 197.524 41.0176 197.8 41.0176H202.785C203.061 41.0176 203.285 41.2414 203.285 41.5176C203.285 41.7937 203.061 42.0176 202.785 42.0176H197.8C197.524 42.0176 197.3 41.7937 197.3 41.5176ZM207.271 41.5176C207.271 41.2414 207.494 41.0176 207.771 41.0176H212.756C213.032 41.0176 213.256 41.2414 213.256 41.5176C213.256 41.7937 213.032 42.0176 212.756 42.0176H207.771C207.494 42.0176 207.271 41.7937 207.271 41.5176ZM217.241 41.5176C217.241 41.2414 217.465 41.0176 217.741 41.0176H222.727C223.003 41.0176 223.227 41.2414 223.227 41.5176C223.227 41.7937 223.003 42.0176 222.727 42.0176H217.741C217.465 42.0176 217.241 41.7937 217.241 41.5176ZM227.212 41.5176C227.212 41.2414 227.436 41.0176 227.712 41.0176H232.697C232.974 41.0176 233.197 41.2414 233.197 41.5176C233.197 41.7937 232.974 42.0176 232.697 42.0176H227.712C227.436 42.0176 227.212 41.7937 227.212 41.5176ZM237.183 41.5176C237.183 41.2414 237.407 41.0176 237.683 41.0176H242.668C242.944 41.0176 243.168 41.2414 243.168 41.5176C243.168 41.7937 242.944 42.0176 242.668 42.0176H237.683C237.407 42.0176 237.183 41.7937 237.183 41.5176ZM247.154 41.5176C247.154 41.2414 247.377 41.0176 247.654 41.0176H252.639C252.915 41.0176 253.139 41.2414 253.139 41.5176C253.139 41.7937 252.915 42.0176 252.639 42.0176H247.654C247.377 42.0176 247.154 41.7937 247.154 41.5176ZM257.124 41.5176C257.124 41.2414 257.348 41.0176 257.624 41.0176H262.61C262.886 41.0176 263.11 41.2414 263.11 41.5176C263.11 41.7937 262.886 42.0176 262.61 42.0176H257.624C257.348 42.0176 257.124 41.7937 257.124 41.5176ZM267.095 41.5176C267.095 41.2414 267.319 41.0176 267.595 41.0176H272.581C272.857 41.0176 273.081 41.2414 273.081 41.5176C273.081 41.7937 272.857 42.0176 272.581 42.0176H267.595C267.319 42.0176 267.095 41.7937 267.095 41.5176ZM277.066 41.5176C277.066 41.2414 277.29 41.0176 277.566 41.0176H282.551C282.827 41.0176 283.051 41.2414 283.051 41.5176C283.051 41.7937 282.827 42.0176 282.551 42.0176H277.566C277.29 42.0176 277.066 41.7937 277.066 41.5176ZM287.037 41.5176C287.037 41.2414 287.26 41.0176 287.537 41.0176H292.522C292.798 41.0176 293.022 41.2414 293.022 41.5176C293.022 41.7937 292.798 42.0176 292.522 42.0176H287.537C287.26 42.0176 287.037 41.7937 287.037 41.5176ZM297.007 41.5176C297.007 41.2414 297.231 41.0176 297.507 41.0176H302.493C302.769 41.0176 302.993 41.2414 302.993 41.5176C302.993 41.7937 302.769 42.0176 302.493 42.0176H297.507C297.231 42.0176 297.007 41.7937 297.007 41.5176ZM306.978 41.5176C306.978 41.2414 307.202 41.0176 307.478 41.0176H312.464C312.74 41.0176 312.964 41.2414 312.964 41.5176C312.964 41.7937 312.74 42.0176 312.464 42.0176H307.478C307.202 42.0176 306.978 41.7937 306.978 41.5176ZM316.949 41.5176C316.949 41.2414 317.173 41.0176 317.449 41.0176H322.434C322.71 41.0176 322.934 41.2414 322.934 41.5176C322.934 41.7937 322.71 42.0176 322.434 42.0176H317.449C317.173 42.0176 316.949 41.7937 316.949 41.5176ZM326.92 41.5176C326.92 41.2414 327.144 41.0176 327.42 41.0176H332.405C332.681 41.0176 332.905 41.2414 332.905 41.5176C332.905 41.7937 332.681 42.0176 332.405 42.0176H327.42C327.144 42.0176 326.92 41.7937 326.92 41.5176ZM336.89 41.5176C336.89 41.2414 337.114 41.0176 337.39 41.0176H342.376C342.652 41.0176 342.876 41.2414 342.876 41.5176C342.876 41.7937 342.652 42.0176 342.376 42.0176H337.39C337.114 42.0176 336.89 41.7937 336.89 41.5176ZM346.861 41.5176C346.861 41.2414 347.085 41.0176 347.361 41.0176H352.347C352.623 41.0176 352.847 41.2414 352.847 41.5176C352.847 41.7937 352.623 42.0176 352.347 42.0176H347.361C347.085 42.0176 346.861 41.7937 346.861 41.5176ZM356.832 41.5176C356.832 41.2414 357.056 41.0176 357.332 41.0176H362.317C362.594 41.0176 362.817 41.2414 362.817 41.5176C362.817 41.7937 362.594 42.0176 362.317 42.0176H357.332C357.056 42.0176 356.832 41.7937 356.832 41.5176ZM366.803 41.5176C366.803 41.2414 367.027 41.0176 367.303 41.0176H372.288C372.564 41.0176 372.788 41.2414 372.788 41.5176C372.788 41.7937 372.564 42.0176 372.288 42.0176H367.303C367.027 42.0176 366.803 41.7937 366.803 41.5176ZM376.774 41.5176C376.774 41.2414 376.997 41.0176 377.274 41.0176H382.259C382.535 41.0176 382.759 41.2414 382.759 41.5176C382.759 41.7937 382.535 42.0176 382.259 42.0176H377.274C376.997 42.0176 376.774 41.7937 376.774 41.5176ZM386.744 41.5176C386.744 41.2414 386.968 41.0176 387.244 41.0176H392.23C392.506 41.0176 392.73 41.2414 392.73 41.5176C392.73 41.7937 392.506 42.0176 392.23 42.0176H387.244C386.968 42.0176 386.744 41.7937 386.744 41.5176ZM396.715 41.5176C396.715 41.2414 396.939 41.0176 397.215 41.0176H402.2C402.477 41.0176 402.7 41.2414 402.7 41.5176C402.7 41.7937 402.477 42.0176 402.2 42.0176H397.215C396.939 42.0176 396.715 41.7937 396.715 41.5176ZM406.686 41.5176C406.686 41.2414 406.91 41.0176 407.186 41.0176H412.171C412.447 41.0176 412.671 41.2414 412.671 41.5176C412.671 41.7937 412.447 42.0176 412.171 42.0176H407.186C406.91 42.0176 406.686 41.7937 406.686 41.5176ZM416.657 41.5176C416.657 41.2414 416.88 41.0176 417.157 41.0176H422.142C422.418 41.0176 422.642 41.2414 422.642 41.5176C422.642 41.7937 422.418 42.0176 422.142 42.0176H417.157C416.88 42.0176 416.657 41.7937 416.657 41.5176ZM426.627 41.5176C426.627 41.2414 426.851 41.0176 427.127 41.0176H432.113C432.389 41.0176 432.613 41.2414 432.613 41.5176C432.613 41.7937 432.389 42.0176 432.113 42.0176H427.127C426.851 42.0176 426.627 41.7937 426.627 41.5176ZM436.598 41.5176C436.598 41.2414 436.822 41.0176 437.098 41.0176H442.083C442.36 41.0176 442.583 41.2414 442.583 41.5176C442.583 41.7937 442.36 42.0176 442.083 42.0176H437.098C436.822 42.0176 436.598 41.7937 436.598 41.5176ZM446.569 41.5176C446.569 41.2414 446.793 41.0176 447.069 41.0176H452.054C452.33 41.0176 452.554 41.2414 452.554 41.5176C452.554 41.7937 452.33 42.0176 452.054 42.0176H447.069C446.793 42.0176 446.569 41.7937 446.569 41.5176ZM456.54 41.5176C456.54 41.2414 456.763 41.0176 457.04 41.0176H462.025C462.301 41.0176 462.525 41.2414 462.525 41.5176C462.525 41.7937 462.301 42.0176 462.025 42.0176H457.04C456.763 42.0176 456.54 41.7937 456.54 41.5176ZM466.51 41.5176C466.51 41.2414 466.734 41.0176 467.01 41.0176H471.996C472.272 41.0176 472.496 41.2414 472.496 41.5176C472.496 41.7937 472.272 42.0176 471.996 42.0176H467.01C466.734 42.0176 466.51 41.7937 466.51 41.5176ZM476.481 41.5176C476.481 41.2414 476.705 41.0176 476.981 41.0176H481.967C482.243 41.0176 482.467 41.2414 482.467 41.5176C482.467 41.7937 482.243 42.0176 481.967 42.0176H476.981C476.705 42.0176 476.481 41.7937 476.481 41.5176ZM486.452 41.5176C486.452 41.2414 486.676 41.0176 486.952 41.0176H491.937C492.213 41.0176 492.437 41.2414 492.437 41.5176C492.437 41.7937 492.213 42.0176 491.937 42.0176H486.952C486.676 42.0176 486.452 41.7937 486.452 41.5176ZM496.423 41.5176C496.423 41.2414 496.647 41.0176 496.923 41.0176H501.908C502.184 41.0176 502.408 41.2414 502.408 41.5176C502.408 41.7937 502.184 42.0176 501.908 42.0176H496.923C496.647 42.0176 496.423 41.7937 496.423 41.5176ZM506.393 41.5176C506.393 41.2414 506.617 41.0176 506.893 41.0176H511.879C512.155 41.0176 512.379 41.2414 512.379 41.5176C512.379 41.7937 512.155 42.0176 511.879 42.0176H506.893C506.617 42.0176 506.393 41.7937 506.393 41.5176ZM516.364 41.5176C516.364 41.2414 516.588 41.0176 516.864 41.0176H521.85C522.126 41.0176 522.35 41.2414 522.35 41.5176C522.35 41.7937 522.126 42.0176 521.85 42.0176H516.864C516.588 42.0176 516.364 41.7937 516.364 41.5176ZM526.335 41.5176C526.335 41.2414 526.559 41.0176 526.835 41.0176H531.82C532.096 41.0176 532.32 41.2414 532.32 41.5176C532.32 41.7937 532.096 42.0176 531.82 42.0176H526.835C526.559 42.0176 526.335 41.7937 526.335 41.5176ZM536.306 41.5176C536.306 41.2414 536.529 41.0176 536.806 41.0176H541.791C542.067 41.0176 542.291 41.2414 542.291 41.5176C542.291 41.7937 542.067 42.0176 541.791 42.0176H536.806C536.529 42.0176 536.306 41.7937 536.306 41.5176ZM546.276 41.5176C546.276 41.2414 546.5 41.0176 546.776 41.0176H551.762C552.038 41.0176 552.262 41.2414 552.262 41.5176C552.262 41.7937 552.038 42.0176 551.762 42.0176H546.776C546.5 42.0176 546.276 41.7937 546.276 41.5176ZM556.247 41.5176C556.247 41.2414 556.471 41.0176 556.747 41.0176H561.732C562.008 41.0176 562.232 41.2414 562.232 41.5176C562.232 41.7937 562.008 42.0176 561.732 42.0176H556.747C556.471 42.0176 556.247 41.7937 556.247 41.5176ZM566.218 41.5176C566.218 41.2414 566.442 41.0176 566.718 41.0176H571.703C571.979 41.0176 572.203 41.2414 572.203 41.5176C572.203 41.7937 571.979 42.0176 571.703 42.0176H566.718C566.442 42.0176 566.218 41.7937 566.218 41.5176ZM576.188 41.5176C576.188 41.2414 576.412 41.0176 576.688 41.0176H581.674C581.95 41.0176 582.174 41.2414 582.174 41.5176C582.174 41.7937 581.95 42.0176 581.674 42.0176H576.688C576.412 42.0176 576.188 41.7937 576.188 41.5176ZM586.159 41.5176C586.159 41.2414 586.383 41.0176 586.659 41.0176H591.644C591.921 41.0176 592.144 41.2414 592.144 41.5176C592.144 41.7937 591.921 42.0176 591.644 42.0176H586.659C586.383 42.0176 586.159 41.7937 586.159 41.5176ZM596.13 41.5176C596.13 41.2414 596.354 41.0176 596.63 41.0176H599.123C599.399 41.0176 599.623 41.2414 599.623 41.5176C599.623 41.7937 599.399 42.0176 599.123 42.0176H596.63C596.354 42.0176 596.13 41.7937 596.13 41.5176ZM0.377197 86.5176C0.377197 86.2414 0.601055 86.0176 0.877197 86.0176H3.36989C3.64603 86.0176 3.86989 86.2414 3.86989 86.5176C3.86989 86.7937 3.64603 87.0176 3.36989 87.0176H0.877197C0.601055 87.0176 0.377197 86.7937 0.377197 86.5176ZM7.85527 86.5176C7.85527 86.2414 8.07912 86.0176 8.35527 86.0176H13.3406C13.6168 86.0176 13.8406 86.2414 13.8406 86.5176C13.8406 86.7937 13.6168 87.0176 13.3406 87.0176H8.35527C8.07912 87.0176 7.85527 86.7937 7.85527 86.5176ZM17.826 86.5176C17.826 86.2414 18.0499 86.0176 18.326 86.0176H23.3114C23.5875 86.0176 23.8114 86.2414 23.8114 86.5176C23.8114 86.7937 23.5875 87.0176 23.3114 87.0176H18.326C18.0499 87.0176 17.826 86.7937 17.826 86.5176ZM27.7968 86.5176C27.7968 86.2414 28.0206 86.0176 28.2968 86.0176H33.2822C33.5583 86.0176 33.7822 86.2414 33.7822 86.5176C33.7822 86.7937 33.5583 87.0176 33.2822 87.0176H28.2968C28.0206 87.0176 27.7968 86.7937 27.7968 86.5176ZM37.7675 86.5176C37.7675 86.2414 37.9914 86.0176 38.2675 86.0176H43.2529C43.5291 86.0176 43.7529 86.2414 43.7529 86.5176C43.7529 86.7937 43.5291 87.0176 43.2529 87.0176H38.2675C37.9914 87.0176 37.7675 86.7937 37.7675 86.5176ZM47.7383 86.5176C47.7383 86.2414 47.9622 86.0176 48.2383 86.0176H53.2237C53.4998 86.0176 53.7237 86.2414 53.7237 86.5176C53.7237 86.7937 53.4998 87.0176 53.2237 87.0176H48.2383C47.9622 87.0176 47.7383 86.7937 47.7383 86.5176ZM57.7091 86.5176C57.7091 86.2414 57.9329 86.0176 58.2091 86.0176H63.1945C63.4706 86.0176 63.6945 86.2414 63.6945 86.5176C63.6945 86.7937 63.4706 87.0176 63.1945 87.0176H58.2091C57.9329 87.0176 57.7091 86.7937 57.7091 86.5176ZM67.6798 86.5176C67.6798 86.2414 67.9037 86.0176 68.1798 86.0176H73.1652C73.4414 86.0176 73.6652 86.2414 73.6652 86.5176C73.6652 86.7937 73.4414 87.0176 73.1652 87.0176H68.1798C67.9037 87.0176 67.6798 86.7937 67.6798 86.5176ZM77.6506 86.5176C77.6506 86.2414 77.8745 86.0176 78.1506 86.0176H83.136C83.4121 86.0176 83.636 86.2414 83.636 86.5176C83.636 86.7937 83.4121 87.0176 83.136 87.0176H78.1506C77.8745 87.0176 77.6506 86.7937 77.6506 86.5176ZM87.6214 86.5176C87.6214 86.2414 87.8452 86.0176 88.1214 86.0176H93.1068C93.3829 86.0176 93.6068 86.2414 93.6068 86.5176C93.6068 86.7937 93.3829 87.0176 93.1068 87.0176H88.1214C87.8452 87.0176 87.6214 86.7937 87.6214 86.5176ZM97.5921 86.5176C97.5921 86.2414 97.816 86.0176 98.0921 86.0176H103.078C103.354 86.0176 103.578 86.2414 103.578 86.5176C103.578 86.7937 103.354 87.0176 103.078 87.0176H98.0921C97.816 87.0176 97.5921 86.7937 97.5921 86.5176ZM107.563 86.5176C107.563 86.2414 107.787 86.0176 108.063 86.0176H113.048C113.324 86.0176 113.548 86.2414 113.548 86.5176C113.548 86.7937 113.324 87.0176 113.048 87.0176H108.063C107.787 87.0176 107.563 86.7937 107.563 86.5176ZM117.534 86.5176C117.534 86.2414 117.758 86.0176 118.034 86.0176H123.019C123.295 86.0176 123.519 86.2414 123.519 86.5176C123.519 86.7937 123.295 87.0176 123.019 87.0176H118.034C117.758 87.0176 117.534 86.7937 117.534 86.5176ZM127.504 86.5176C127.504 86.2414 127.728 86.0176 128.004 86.0176H132.99C133.266 86.0176 133.49 86.2414 133.49 86.5176C133.49 86.7937 133.266 87.0176 132.99 87.0176H128.004C127.728 87.0176 127.504 86.7937 127.504 86.5176ZM137.475 86.5176C137.475 86.2414 137.699 86.0176 137.975 86.0176H142.961C143.237 86.0176 143.461 86.2414 143.461 86.5176C143.461 86.7937 143.237 87.0176 142.961 87.0176H137.975C137.699 87.0176 137.475 86.7937 137.475 86.5176ZM147.446 86.5176C147.446 86.2414 147.67 86.0176 147.946 86.0176H152.931C153.207 86.0176 153.431 86.2414 153.431 86.5176C153.431 86.7937 153.207 87.0176 152.931 87.0176H147.946C147.67 87.0176 147.446 86.7937 147.446 86.5176ZM157.417 86.5176C157.417 86.2414 157.641 86.0176 157.917 86.0176H162.902C163.178 86.0176 163.402 86.2414 163.402 86.5176C163.402 86.7937 163.178 87.0176 162.902 87.0176H157.917C157.641 87.0176 157.417 86.7937 157.417 86.5176ZM167.387 86.5176C167.387 86.2414 167.611 86.0176 167.887 86.0176H172.873C173.149 86.0176 173.373 86.2414 173.373 86.5176C173.373 86.7937 173.149 87.0176 172.873 87.0176H167.887C167.611 87.0176 167.387 86.7937 167.387 86.5176ZM177.358 86.5176C177.358 86.2414 177.582 86.0176 177.858 86.0176H182.844C183.12 86.0176 183.344 86.2414 183.344 86.5176C183.344 86.7937 183.12 87.0176 182.844 87.0176H177.858C177.582 87.0176 177.358 86.7937 177.358 86.5176ZM187.329 86.5176C187.329 86.2414 187.553 86.0176 187.829 86.0176H192.814C193.091 86.0176 193.314 86.2414 193.314 86.5176C193.314 86.7937 193.091 87.0176 192.814 87.0176H187.829C187.553 87.0176 187.329 86.7937 187.329 86.5176ZM197.3 86.5176C197.3 86.2414 197.524 86.0176 197.8 86.0176H202.785C203.061 86.0176 203.285 86.2414 203.285 86.5176C203.285 86.7937 203.061 87.0176 202.785 87.0176H197.8C197.524 87.0176 197.3 86.7937 197.3 86.5176ZM207.271 86.5176C207.271 86.2414 207.494 86.0176 207.771 86.0176H212.756C213.032 86.0176 213.256 86.2414 213.256 86.5176C213.256 86.7937 213.032 87.0176 212.756 87.0176H207.771C207.494 87.0176 207.271 86.7937 207.271 86.5176ZM217.241 86.5176C217.241 86.2414 217.465 86.0176 217.741 86.0176H222.727C223.003 86.0176 223.227 86.2414 223.227 86.5176C223.227 86.7937 223.003 87.0176 222.727 87.0176H217.741C217.465 87.0176 217.241 86.7937 217.241 86.5176ZM227.212 86.5176C227.212 86.2414 227.436 86.0176 227.712 86.0176H232.697C232.974 86.0176 233.197 86.2414 233.197 86.5176C233.197 86.7937 232.974 87.0176 232.697 87.0176H227.712C227.436 87.0176 227.212 86.7937 227.212 86.5176ZM237.183 86.5176C237.183 86.2414 237.407 86.0176 237.683 86.0176H242.668C242.944 86.0176 243.168 86.2414 243.168 86.5176C243.168 86.7937 242.944 87.0176 242.668 87.0176H237.683C237.407 87.0176 237.183 86.7937 237.183 86.5176ZM247.154 86.5176C247.154 86.2414 247.377 86.0176 247.654 86.0176H252.639C252.915 86.0176 253.139 86.2414 253.139 86.5176C253.139 86.7937 252.915 87.0176 252.639 87.0176H247.654C247.377 87.0176 247.154 86.7937 247.154 86.5176ZM257.124 86.5176C257.124 86.2414 257.348 86.0176 257.624 86.0176H262.61C262.886 86.0176 263.11 86.2414 263.11 86.5176C263.11 86.7937 262.886 87.0176 262.61 87.0176H257.624C257.348 87.0176 257.124 86.7937 257.124 86.5176ZM267.095 86.5176C267.095 86.2414 267.319 86.0176 267.595 86.0176H272.581C272.857 86.0176 273.081 86.2414 273.081 86.5176C273.081 86.7937 272.857 87.0176 272.581 87.0176H267.595C267.319 87.0176 267.095 86.7937 267.095 86.5176ZM277.066 86.5176C277.066 86.2414 277.29 86.0176 277.566 86.0176H282.551C282.827 86.0176 283.051 86.2414 283.051 86.5176C283.051 86.7937 282.827 87.0176 282.551 87.0176H277.566C277.29 87.0176 277.066 86.7937 277.066 86.5176ZM287.037 86.5176C287.037 86.2414 287.26 86.0176 287.537 86.0176H292.522C292.798 86.0176 293.022 86.2414 293.022 86.5176C293.022 86.7937 292.798 87.0176 292.522 87.0176H287.537C287.26 87.0176 287.037 86.7937 287.037 86.5176ZM297.007 86.5176C297.007 86.2414 297.231 86.0176 297.507 86.0176H302.493C302.769 86.0176 302.993 86.2414 302.993 86.5176C302.993 86.7937 302.769 87.0176 302.493 87.0176H297.507C297.231 87.0176 297.007 86.7937 297.007 86.5176ZM306.978 86.5176C306.978 86.2414 307.202 86.0176 307.478 86.0176H312.464C312.74 86.0176 312.964 86.2414 312.964 86.5176C312.964 86.7937 312.74 87.0176 312.464 87.0176H307.478C307.202 87.0176 306.978 86.7937 306.978 86.5176ZM316.949 86.5176C316.949 86.2414 317.173 86.0176 317.449 86.0176H322.434C322.71 86.0176 322.934 86.2414 322.934 86.5176C322.934 86.7937 322.71 87.0176 322.434 87.0176H317.449C317.173 87.0176 316.949 86.7937 316.949 86.5176ZM326.92 86.5176C326.92 86.2414 327.144 86.0176 327.42 86.0176H332.405C332.681 86.0176 332.905 86.2414 332.905 86.5176C332.905 86.7937 332.681 87.0176 332.405 87.0176H327.42C327.144 87.0176 326.92 86.7937 326.92 86.5176ZM336.89 86.5176C336.89 86.2414 337.114 86.0176 337.39 86.0176H342.376C342.652 86.0176 342.876 86.2414 342.876 86.5176C342.876 86.7937 342.652 87.0176 342.376 87.0176H337.39C337.114 87.0176 336.89 86.7937 336.89 86.5176ZM346.861 86.5176C346.861 86.2414 347.085 86.0176 347.361 86.0176H352.347C352.623 86.0176 352.847 86.2414 352.847 86.5176C352.847 86.7937 352.623 87.0176 352.347 87.0176H347.361C347.085 87.0176 346.861 86.7937 346.861 86.5176ZM356.832 86.5176C356.832 86.2414 357.056 86.0176 357.332 86.0176H362.317C362.594 86.0176 362.817 86.2414 362.817 86.5176C362.817 86.7937 362.594 87.0176 362.317 87.0176H357.332C357.056 87.0176 356.832 86.7937 356.832 86.5176ZM366.803 86.5176C366.803 86.2414 367.027 86.0176 367.303 86.0176H372.288C372.564 86.0176 372.788 86.2414 372.788 86.5176C372.788 86.7937 372.564 87.0176 372.288 87.0176H367.303C367.027 87.0176 366.803 86.7937 366.803 86.5176ZM376.774 86.5176C376.774 86.2414 376.997 86.0176 377.274 86.0176H382.259C382.535 86.0176 382.759 86.2414 382.759 86.5176C382.759 86.7937 382.535 87.0176 382.259 87.0176H377.274C376.997 87.0176 376.774 86.7937 376.774 86.5176ZM386.744 86.5176C386.744 86.2414 386.968 86.0176 387.244 86.0176H392.23C392.506 86.0176 392.73 86.2414 392.73 86.5176C392.73 86.7937 392.506 87.0176 392.23 87.0176H387.244C386.968 87.0176 386.744 86.7937 386.744 86.5176ZM396.715 86.5176C396.715 86.2414 396.939 86.0176 397.215 86.0176H402.2C402.477 86.0176 402.7 86.2414 402.7 86.5176C402.7 86.7937 402.477 87.0176 402.2 87.0176H397.215C396.939 87.0176 396.715 86.7937 396.715 86.5176ZM406.686 86.5176C406.686 86.2414 406.91 86.0176 407.186 86.0176H412.171C412.447 86.0176 412.671 86.2414 412.671 86.5176C412.671 86.7937 412.447 87.0176 412.171 87.0176H407.186C406.91 87.0176 406.686 86.7937 406.686 86.5176ZM416.657 86.5176C416.657 86.2414 416.88 86.0176 417.157 86.0176H422.142C422.418 86.0176 422.642 86.2414 422.642 86.5176C422.642 86.7937 422.418 87.0176 422.142 87.0176H417.157C416.88 87.0176 416.657 86.7937 416.657 86.5176ZM426.627 86.5176C426.627 86.2414 426.851 86.0176 427.127 86.0176H432.113C432.389 86.0176 432.613 86.2414 432.613 86.5176C432.613 86.7937 432.389 87.0176 432.113 87.0176H427.127C426.851 87.0176 426.627 86.7937 426.627 86.5176ZM436.598 86.5176C436.598 86.2414 436.822 86.0176 437.098 86.0176H442.083C442.36 86.0176 442.583 86.2414 442.583 86.5176C442.583 86.7937 442.36 87.0176 442.083 87.0176H437.098C436.822 87.0176 436.598 86.7937 436.598 86.5176ZM446.569 86.5176C446.569 86.2414 446.793 86.0176 447.069 86.0176H452.054C452.33 86.0176 452.554 86.2414 452.554 86.5176C452.554 86.7937 452.33 87.0176 452.054 87.0176H447.069C446.793 87.0176 446.569 86.7937 446.569 86.5176ZM456.54 86.5176C456.54 86.2414 456.763 86.0176 457.04 86.0176H462.025C462.301 86.0176 462.525 86.2414 462.525 86.5176C462.525 86.7937 462.301 87.0176 462.025 87.0176H457.04C456.763 87.0176 456.54 86.7937 456.54 86.5176ZM466.51 86.5176C466.51 86.2414 466.734 86.0176 467.01 86.0176H471.996C472.272 86.0176 472.496 86.2414 472.496 86.5176C472.496 86.7937 472.272 87.0176 471.996 87.0176H467.01C466.734 87.0176 466.51 86.7937 466.51 86.5176ZM476.481 86.5176C476.481 86.2414 476.705 86.0176 476.981 86.0176H481.967C482.243 86.0176 482.467 86.2414 482.467 86.5176C482.467 86.7937 482.243 87.0176 481.967 87.0176H476.981C476.705 87.0176 476.481 86.7937 476.481 86.5176ZM486.452 86.5176C486.452 86.2414 486.676 86.0176 486.952 86.0176H491.937C492.213 86.0176 492.437 86.2414 492.437 86.5176C492.437 86.7937 492.213 87.0176 491.937 87.0176H486.952C486.676 87.0176 486.452 86.7937 486.452 86.5176ZM496.423 86.5176C496.423 86.2414 496.647 86.0176 496.923 86.0176H501.908C502.184 86.0176 502.408 86.2414 502.408 86.5176C502.408 86.7937 502.184 87.0176 501.908 87.0176H496.923C496.647 87.0176 496.423 86.7937 496.423 86.5176ZM506.393 86.5176C506.393 86.2414 506.617 86.0176 506.893 86.0176H511.879C512.155 86.0176 512.379 86.2414 512.379 86.5176C512.379 86.7937 512.155 87.0176 511.879 87.0176H506.893C506.617 87.0176 506.393 86.7937 506.393 86.5176ZM516.364 86.5176C516.364 86.2414 516.588 86.0176 516.864 86.0176H521.85C522.126 86.0176 522.35 86.2414 522.35 86.5176C522.35 86.7937 522.126 87.0176 521.85 87.0176H516.864C516.588 87.0176 516.364 86.7937 516.364 86.5176ZM526.335 86.5176C526.335 86.2414 526.559 86.0176 526.835 86.0176H531.82C532.096 86.0176 532.32 86.2414 532.32 86.5176C532.32 86.7937 532.096 87.0176 531.82 87.0176H526.835C526.559 87.0176 526.335 86.7937 526.335 86.5176ZM536.306 86.5176C536.306 86.2414 536.529 86.0176 536.806 86.0176H541.791C542.067 86.0176 542.291 86.2414 542.291 86.5176C542.291 86.7937 542.067 87.0176 541.791 87.0176H536.806C536.529 87.0176 536.306 86.7937 536.306 86.5176ZM546.276 86.5176C546.276 86.2414 546.5 86.0176 546.776 86.0176H551.762C552.038 86.0176 552.262 86.2414 552.262 86.5176C552.262 86.7937 552.038 87.0176 551.762 87.0176H546.776C546.5 87.0176 546.276 86.7937 546.276 86.5176ZM556.247 86.5176C556.247 86.2414 556.471 86.0176 556.747 86.0176H561.732C562.008 86.0176 562.232 86.2414 562.232 86.5176C562.232 86.7937 562.008 87.0176 561.732 87.0176H556.747C556.471 87.0176 556.247 86.7937 556.247 86.5176ZM566.218 86.5176C566.218 86.2414 566.442 86.0176 566.718 86.0176H571.703C571.979 86.0176 572.203 86.2414 572.203 86.5176C572.203 86.7937 571.979 87.0176 571.703 87.0176H566.718C566.442 87.0176 566.218 86.7937 566.218 86.5176ZM576.188 86.5176C576.188 86.2414 576.412 86.0176 576.688 86.0176H581.674C581.95 86.0176 582.174 86.2414 582.174 86.5176C582.174 86.7937 581.95 87.0176 581.674 87.0176H576.688C576.412 87.0176 576.188 86.7937 576.188 86.5176ZM586.159 86.5176C586.159 86.2414 586.383 86.0176 586.659 86.0176H591.644C591.921 86.0176 592.144 86.2414 592.144 86.5176C592.144 86.7937 591.921 87.0176 591.644 87.0176H586.659C586.383 87.0176 586.159 86.7937 586.159 86.5176ZM596.13 86.5176C596.13 86.2414 596.354 86.0176 596.63 86.0176H599.123C599.399 86.0176 599.623 86.2414 599.623 86.5176C599.623 86.7937 599.399 87.0176 599.123 87.0176H596.63C596.354 87.0176 596.13 86.7937 596.13 86.5176ZM0.877197 131.018C0.601055 131.018 0.377197 131.241 0.377197 131.518C0.377197 131.794 0.601055 132.018 0.877197 132.018H3.36989C3.64603 132.018 3.86989 131.794 3.86989 131.518C3.86989 131.241 3.64603 131.018 3.36989 131.018H0.877197ZM8.35527 131.018C8.07912 131.018 7.85527 131.241 7.85527 131.518C7.85527 131.794 8.07912 132.018 8.35527 132.018H13.3406C13.6168 132.018 13.8406 131.794 13.8406 131.518C13.8406 131.241 13.6168 131.018 13.3406 131.018H8.35527ZM18.326 131.018C18.0499 131.018 17.826 131.241 17.826 131.518C17.826 131.794 18.0499 132.018 18.326 132.018H23.3114C23.5875 132.018 23.8114 131.794 23.8114 131.518C23.8114 131.241 23.5875 131.018 23.3114 131.018H18.326ZM28.2968 131.018C28.0206 131.018 27.7968 131.241 27.7968 131.518C27.7968 131.794 28.0206 132.018 28.2968 132.018H33.2822C33.5583 132.018 33.7822 131.794 33.7822 131.518C33.7822 131.241 33.5583 131.018 33.2822 131.018H28.2968ZM38.2675 131.018C37.9914 131.018 37.7675 131.241 37.7675 131.518C37.7675 131.794 37.9914 132.018 38.2675 132.018H43.2529C43.5291 132.018 43.7529 131.794 43.7529 131.518C43.7529 131.241 43.5291 131.018 43.2529 131.018H38.2675ZM48.2383 131.018C47.9622 131.018 47.7383 131.241 47.7383 131.518C47.7383 131.794 47.9622 132.018 48.2383 132.018H53.2237C53.4998 132.018 53.7237 131.794 53.7237 131.518C53.7237 131.241 53.4998 131.018 53.2237 131.018H48.2383ZM58.2091 131.018C57.9329 131.018 57.7091 131.241 57.7091 131.518C57.7091 131.794 57.9329 132.018 58.2091 132.018H63.1945C63.4706 132.018 63.6945 131.794 63.6945 131.518C63.6945 131.241 63.4706 131.018 63.1945 131.018H58.2091ZM68.1798 131.018C67.9037 131.018 67.6798 131.241 67.6798 131.518C67.6798 131.794 67.9037 132.018 68.1798 132.018H73.1652C73.4414 132.018 73.6652 131.794 73.6652 131.518C73.6652 131.241 73.4414 131.018 73.1652 131.018H68.1798ZM78.1506 131.018C77.8745 131.018 77.6506 131.241 77.6506 131.518C77.6506 131.794 77.8745 132.018 78.1506 132.018H83.136C83.4121 132.018 83.636 131.794 83.636 131.518C83.636 131.241 83.4121 131.018 83.136 131.018H78.1506ZM88.1214 131.018C87.8452 131.018 87.6214 131.241 87.6214 131.518C87.6214 131.794 87.8452 132.018 88.1214 132.018H93.1068C93.3829 132.018 93.6068 131.794 93.6068 131.518C93.6068 131.241 93.3829 131.018 93.1068 131.018H88.1214ZM98.0921 131.018C97.816 131.018 97.5921 131.241 97.5921 131.518C97.5921 131.794 97.816 132.018 98.0921 132.018H103.078C103.354 132.018 103.578 131.794 103.578 131.518C103.578 131.241 103.354 131.018 103.078 131.018H98.0921ZM108.063 131.018C107.787 131.018 107.563 131.241 107.563 131.518C107.563 131.794 107.787 132.018 108.063 132.018H113.048C113.324 132.018 113.548 131.794 113.548 131.518C113.548 131.241 113.324 131.018 113.048 131.018H108.063ZM118.034 131.018C117.758 131.018 117.534 131.241 117.534 131.518C117.534 131.794 117.758 132.018 118.034 132.018H123.019C123.295 132.018 123.519 131.794 123.519 131.518C123.519 131.241 123.295 131.018 123.019 131.018H118.034ZM128.004 131.018C127.728 131.018 127.504 131.241 127.504 131.518C127.504 131.794 127.728 132.018 128.004 132.018H132.99C133.266 132.018 133.49 131.794 133.49 131.518C133.49 131.241 133.266 131.018 132.99 131.018H128.004ZM137.975 131.018C137.699 131.018 137.475 131.241 137.475 131.518C137.475 131.794 137.699 132.018 137.975 132.018H142.961C143.237 132.018 143.461 131.794 143.461 131.518C143.461 131.241 143.237 131.018 142.961 131.018H137.975ZM147.946 131.018C147.67 131.018 147.446 131.241 147.446 131.518C147.446 131.794 147.67 132.018 147.946 132.018H152.931C153.207 132.018 153.431 131.794 153.431 131.518C153.431 131.241 153.207 131.018 152.931 131.018H147.946ZM157.917 131.018C157.641 131.018 157.417 131.241 157.417 131.518C157.417 131.794 157.641 132.018 157.917 132.018H162.902C163.178 132.018 163.402 131.794 163.402 131.518C163.402 131.241 163.178 131.018 162.902 131.018H157.917ZM167.887 131.018C167.611 131.018 167.387 131.241 167.387 131.518C167.387 131.794 167.611 132.018 167.887 132.018H172.873C173.149 132.018 173.373 131.794 173.373 131.518C173.373 131.241 173.149 131.018 172.873 131.018H167.887ZM177.858 131.018C177.582 131.018 177.358 131.241 177.358 131.518C177.358 131.794 177.582 132.018 177.858 132.018H182.844C183.12 132.018 183.344 131.794 183.344 131.518C183.344 131.241 183.12 131.018 182.844 131.018H177.858ZM187.829 131.018C187.553 131.018 187.329 131.241 187.329 131.518C187.329 131.794 187.553 132.018 187.829 132.018H192.814C193.091 132.018 193.314 131.794 193.314 131.518C193.314 131.241 193.091 131.018 192.814 131.018H187.829ZM197.8 131.018C197.524 131.018 197.3 131.241 197.3 131.518C197.3 131.794 197.524 132.018 197.8 132.018H202.785C203.061 132.018 203.285 131.794 203.285 131.518C203.285 131.241 203.061 131.018 202.785 131.018H197.8ZM207.771 131.018C207.494 131.018 207.271 131.241 207.271 131.518C207.271 131.794 207.494 132.018 207.771 132.018H212.756C213.032 132.018 213.256 131.794 213.256 131.518C213.256 131.241 213.032 131.018 212.756 131.018H207.771ZM217.741 131.018C217.465 131.018 217.241 131.241 217.241 131.518C217.241 131.794 217.465 132.018 217.741 132.018H222.727C223.003 132.018 223.227 131.794 223.227 131.518C223.227 131.241 223.003 131.018 222.727 131.018H217.741ZM227.712 131.018C227.436 131.018 227.212 131.241 227.212 131.518C227.212 131.794 227.436 132.018 227.712 132.018H232.697C232.974 132.018 233.197 131.794 233.197 131.518C233.197 131.241 232.974 131.018 232.697 131.018H227.712ZM237.683 131.018C237.407 131.018 237.183 131.241 237.183 131.518C237.183 131.794 237.407 132.018 237.683 132.018H242.668C242.944 132.018 243.168 131.794 243.168 131.518C243.168 131.241 242.944 131.018 242.668 131.018H237.683ZM247.654 131.018C247.377 131.018 247.154 131.241 247.154 131.518C247.154 131.794 247.377 132.018 247.654 132.018H252.639C252.915 132.018 253.139 131.794 253.139 131.518C253.139 131.241 252.915 131.018 252.639 131.018H247.654ZM257.624 131.018C257.348 131.018 257.124 131.241 257.124 131.518C257.124 131.794 257.348 132.018 257.624 132.018H262.61C262.886 132.018 263.11 131.794 263.11 131.518C263.11 131.241 262.886 131.018 262.61 131.018H257.624ZM267.595 131.018C267.319 131.018 267.095 131.241 267.095 131.518C267.095 131.794 267.319 132.018 267.595 132.018H272.581C272.857 132.018 273.081 131.794 273.081 131.518C273.081 131.241 272.857 131.018 272.581 131.018H267.595ZM277.566 131.018C277.29 131.018 277.066 131.241 277.066 131.518C277.066 131.794 277.29 132.018 277.566 132.018H282.551C282.827 132.018 283.051 131.794 283.051 131.518C283.051 131.241 282.827 131.018 282.551 131.018H277.566ZM287.537 131.018C287.26 131.018 287.037 131.241 287.037 131.518C287.037 131.794 287.26 132.018 287.537 132.018H292.522C292.798 132.018 293.022 131.794 293.022 131.518C293.022 131.241 292.798 131.018 292.522 131.018H287.537ZM297.507 131.018C297.231 131.018 297.007 131.241 297.007 131.518C297.007 131.794 297.231 132.018 297.507 132.018H302.493C302.769 132.018 302.993 131.794 302.993 131.518C302.993 131.241 302.769 131.018 302.493 131.018H297.507ZM307.478 131.018C307.202 131.018 306.978 131.241 306.978 131.518C306.978 131.794 307.202 132.018 307.478 132.018H312.464C312.74 132.018 312.964 131.794 312.964 131.518C312.964 131.241 312.74 131.018 312.464 131.018H307.478ZM317.449 131.018C317.173 131.018 316.949 131.241 316.949 131.518C316.949 131.794 317.173 132.018 317.449 132.018H322.434C322.71 132.018 322.934 131.794 322.934 131.518C322.934 131.241 322.71 131.018 322.434 131.018H317.449ZM327.42 131.018C327.144 131.018 326.92 131.241 326.92 131.518C326.92 131.794 327.144 132.018 327.42 132.018H332.405C332.681 132.018 332.905 131.794 332.905 131.518C332.905 131.241 332.681 131.018 332.405 131.018H327.42ZM337.39 131.018C337.114 131.018 336.89 131.241 336.89 131.518C336.89 131.794 337.114 132.018 337.39 132.018H342.376C342.652 132.018 342.876 131.794 342.876 131.518C342.876 131.241 342.652 131.018 342.376 131.018H337.39ZM347.361 131.018C347.085 131.018 346.861 131.241 346.861 131.518C346.861 131.794 347.085 132.018 347.361 132.018H352.347C352.623 132.018 352.847 131.794 352.847 131.518C352.847 131.241 352.623 131.018 352.347 131.018H347.361ZM357.332 131.018C357.056 131.018 356.832 131.241 356.832 131.518C356.832 131.794 357.056 132.018 357.332 132.018H362.317C362.594 132.018 362.817 131.794 362.817 131.518C362.817 131.241 362.594 131.018 362.317 131.018H357.332ZM367.303 131.018C367.027 131.018 366.803 131.241 366.803 131.518C366.803 131.794 367.027 132.018 367.303 132.018H372.288C372.564 132.018 372.788 131.794 372.788 131.518C372.788 131.241 372.564 131.018 372.288 131.018H367.303ZM377.274 131.018C376.997 131.018 376.774 131.241 376.774 131.518C376.774 131.794 376.997 132.018 377.274 132.018H382.259C382.535 132.018 382.759 131.794 382.759 131.518C382.759 131.241 382.535 131.018 382.259 131.018H377.274ZM387.244 131.018C386.968 131.018 386.744 131.241 386.744 131.518C386.744 131.794 386.968 132.018 387.244 132.018H392.23C392.506 132.018 392.73 131.794 392.73 131.518C392.73 131.241 392.506 131.018 392.23 131.018H387.244ZM397.215 131.018C396.939 131.018 396.715 131.241 396.715 131.518C396.715 131.794 396.939 132.018 397.215 132.018H402.2C402.477 132.018 402.7 131.794 402.7 131.518C402.7 131.241 402.477 131.018 402.2 131.018H397.215ZM407.186 131.018C406.91 131.018 406.686 131.241 406.686 131.518C406.686 131.794 406.91 132.018 407.186 132.018H412.171C412.447 132.018 412.671 131.794 412.671 131.518C412.671 131.241 412.447 131.018 412.171 131.018H407.186ZM417.157 131.018C416.88 131.018 416.657 131.241 416.657 131.518C416.657 131.794 416.88 132.018 417.157 132.018H422.142C422.418 132.018 422.642 131.794 422.642 131.518C422.642 131.241 422.418 131.018 422.142 131.018H417.157ZM427.127 131.018C426.851 131.018 426.627 131.241 426.627 131.518C426.627 131.794 426.851 132.018 427.127 132.018H432.113C432.389 132.018 432.613 131.794 432.613 131.518C432.613 131.241 432.389 131.018 432.113 131.018H427.127ZM437.098 131.018C436.822 131.018 436.598 131.241 436.598 131.518C436.598 131.794 436.822 132.018 437.098 132.018H442.083C442.36 132.018 442.583 131.794 442.583 131.518C442.583 131.241 442.36 131.018 442.083 131.018H437.098ZM447.069 131.018C446.793 131.018 446.569 131.241 446.569 131.518C446.569 131.794 446.793 132.018 447.069 132.018H452.054C452.33 132.018 452.554 131.794 452.554 131.518C452.554 131.241 452.33 131.018 452.054 131.018H447.069ZM457.04 131.018C456.763 131.018 456.54 131.241 456.54 131.518C456.54 131.794 456.763 132.018 457.04 132.018H462.025C462.301 132.018 462.525 131.794 462.525 131.518C462.525 131.241 462.301 131.018 462.025 131.018H457.04ZM467.01 131.018C466.734 131.018 466.51 131.241 466.51 131.518C466.51 131.794 466.734 132.018 467.01 132.018H471.996C472.272 132.018 472.496 131.794 472.496 131.518C472.496 131.241 472.272 131.018 471.996 131.018H467.01ZM476.981 131.018C476.705 131.018 476.481 131.241 476.481 131.518C476.481 131.794 476.705 132.018 476.981 132.018H481.967C482.243 132.018 482.467 131.794 482.467 131.518C482.467 131.241 482.243 131.018 481.967 131.018H476.981ZM486.952 131.018C486.676 131.018 486.452 131.241 486.452 131.518C486.452 131.794 486.676 132.018 486.952 132.018H491.937C492.213 132.018 492.437 131.794 492.437 131.518C492.437 131.241 492.213 131.018 491.937 131.018H486.952ZM496.923 131.018C496.647 131.018 496.423 131.241 496.423 131.518C496.423 131.794 496.647 132.018 496.923 132.018H501.908C502.184 132.018 502.408 131.794 502.408 131.518C502.408 131.241 502.184 131.018 501.908 131.018H496.923ZM506.893 131.018C506.617 131.018 506.393 131.241 506.393 131.518C506.393 131.794 506.617 132.018 506.893 132.018H511.879C512.155 132.018 512.379 131.794 512.379 131.518C512.379 131.241 512.155 131.018 511.879 131.018H506.893ZM516.864 131.018C516.588 131.018 516.364 131.241 516.364 131.518C516.364 131.794 516.588 132.018 516.864 132.018H521.85C522.126 132.018 522.35 131.794 522.35 131.518C522.35 131.241 522.126 131.018 521.85 131.018H516.864ZM526.835 131.018C526.559 131.018 526.335 131.241 526.335 131.518C526.335 131.794 526.559 132.018 526.835 132.018H531.82C532.096 132.018 532.32 131.794 532.32 131.518C532.32 131.241 532.096 131.018 531.82 131.018H526.835ZM536.806 131.018C536.529 131.018 536.306 131.241 536.306 131.518C536.306 131.794 536.529 132.018 536.806 132.018H541.791C542.067 132.018 542.291 131.794 542.291 131.518C542.291 131.241 542.067 131.018 541.791 131.018H536.806ZM546.776 131.018C546.5 131.018 546.276 131.241 546.276 131.518C546.276 131.794 546.5 132.018 546.776 132.018H551.762C552.038 132.018 552.262 131.794 552.262 131.518C552.262 131.241 552.038 131.018 551.762 131.018H546.776ZM556.747 131.018C556.471 131.018 556.247 131.241 556.247 131.518C556.247 131.794 556.471 132.018 556.747 132.018H561.732C562.008 132.018 562.232 131.794 562.232 131.518C562.232 131.241 562.008 131.018 561.732 131.018H556.747ZM566.718 131.018C566.442 131.018 566.218 131.241 566.218 131.518C566.218 131.794 566.442 132.018 566.718 132.018H571.703C571.979 132.018 572.203 131.794 572.203 131.518C572.203 131.241 571.979 131.018 571.703 131.018H566.718ZM576.688 131.018C576.412 131.018 576.188 131.241 576.188 131.518C576.188 131.794 576.412 132.018 576.688 132.018H581.674C581.95 132.018 582.174 131.794 582.174 131.518C582.174 131.241 581.95 131.018 581.674 131.018H576.688ZM586.659 131.018C586.383 131.018 586.159 131.241 586.159 131.518C586.159 131.794 586.383 132.018 586.659 132.018H591.644C591.921 132.018 592.144 131.794 592.144 131.518C592.144 131.241 591.921 131.018 591.644 131.018H586.659ZM596.63 131.018C596.354 131.018 596.13 131.241 596.13 131.518C596.13 131.794 596.354 132.018 596.63 132.018H599.123C599.399 132.018 599.623 131.794 599.623 131.518C599.623 131.241 599.399 131.018 599.123 131.018H596.63ZM0.377197 176.518C0.377197 176.241 0.601055 176.018 0.877197 176.018H3.36989C3.64603 176.018 3.86989 176.241 3.86989 176.518C3.86989 176.794 3.64603 177.018 3.36989 177.018H0.877197C0.601055 177.018 0.377197 176.794 0.377197 176.518ZM7.85527 176.518C7.85527 176.241 8.07912 176.018 8.35527 176.018H13.3406C13.6168 176.018 13.8406 176.241 13.8406 176.518C13.8406 176.794 13.6168 177.018 13.3406 177.018H8.35527C8.07912 177.018 7.85527 176.794 7.85527 176.518ZM17.826 176.518C17.826 176.241 18.0499 176.018 18.326 176.018H23.3114C23.5875 176.018 23.8114 176.241 23.8114 176.518C23.8114 176.794 23.5875 177.018 23.3114 177.018H18.326C18.0499 177.018 17.826 176.794 17.826 176.518ZM27.7968 176.518C27.7968 176.241 28.0206 176.018 28.2968 176.018H33.2822C33.5583 176.018 33.7822 176.241 33.7822 176.518C33.7822 176.794 33.5583 177.018 33.2822 177.018H28.2968C28.0206 177.018 27.7968 176.794 27.7968 176.518ZM37.7675 176.518C37.7675 176.241 37.9914 176.018 38.2675 176.018H43.2529C43.5291 176.018 43.7529 176.241 43.7529 176.518C43.7529 176.794 43.5291 177.018 43.2529 177.018H38.2675C37.9914 177.018 37.7675 176.794 37.7675 176.518ZM47.7383 176.518C47.7383 176.241 47.9622 176.018 48.2383 176.018H53.2237C53.4998 176.018 53.7237 176.241 53.7237 176.518C53.7237 176.794 53.4998 177.018 53.2237 177.018H48.2383C47.9622 177.018 47.7383 176.794 47.7383 176.518ZM57.7091 176.518C57.7091 176.241 57.9329 176.018 58.2091 176.018H63.1945C63.4706 176.018 63.6945 176.241 63.6945 176.518C63.6945 176.794 63.4706 177.018 63.1945 177.018H58.2091C57.9329 177.018 57.7091 176.794 57.7091 176.518ZM67.6798 176.518C67.6798 176.241 67.9037 176.018 68.1798 176.018H73.1652C73.4414 176.018 73.6652 176.241 73.6652 176.518C73.6652 176.794 73.4414 177.018 73.1652 177.018H68.1798C67.9037 177.018 67.6798 176.794 67.6798 176.518ZM77.6506 176.518C77.6506 176.241 77.8745 176.018 78.1506 176.018H83.136C83.4121 176.018 83.636 176.241 83.636 176.518C83.636 176.794 83.4121 177.018 83.136 177.018H78.1506C77.8745 177.018 77.6506 176.794 77.6506 176.518ZM87.6214 176.518C87.6214 176.241 87.8452 176.018 88.1214 176.018H93.1068C93.3829 176.018 93.6068 176.241 93.6068 176.518C93.6068 176.794 93.3829 177.018 93.1068 177.018H88.1214C87.8452 177.018 87.6214 176.794 87.6214 176.518ZM97.5921 176.518C97.5921 176.241 97.816 176.018 98.0921 176.018H103.078C103.354 176.018 103.578 176.241 103.578 176.518C103.578 176.794 103.354 177.018 103.078 177.018H98.0921C97.816 177.018 97.5921 176.794 97.5921 176.518ZM107.563 176.518C107.563 176.241 107.787 176.018 108.063 176.018H113.048C113.324 176.018 113.548 176.241 113.548 176.518C113.548 176.794 113.324 177.018 113.048 177.018H108.063C107.787 177.018 107.563 176.794 107.563 176.518ZM117.534 176.518C117.534 176.241 117.758 176.018 118.034 176.018H123.019C123.295 176.018 123.519 176.241 123.519 176.518C123.519 176.794 123.295 177.018 123.019 177.018H118.034C117.758 177.018 117.534 176.794 117.534 176.518ZM127.504 176.518C127.504 176.241 127.728 176.018 128.004 176.018H132.99C133.266 176.018 133.49 176.241 133.49 176.518C133.49 176.794 133.266 177.018 132.99 177.018H128.004C127.728 177.018 127.504 176.794 127.504 176.518ZM137.475 176.518C137.475 176.241 137.699 176.018 137.975 176.018H142.961C143.237 176.018 143.461 176.241 143.461 176.518C143.461 176.794 143.237 177.018 142.961 177.018H137.975C137.699 177.018 137.475 176.794 137.475 176.518ZM147.446 176.518C147.446 176.241 147.67 176.018 147.946 176.018H152.931C153.207 176.018 153.431 176.241 153.431 176.518C153.431 176.794 153.207 177.018 152.931 177.018H147.946C147.67 177.018 147.446 176.794 147.446 176.518ZM157.417 176.518C157.417 176.241 157.641 176.018 157.917 176.018H162.902C163.178 176.018 163.402 176.241 163.402 176.518C163.402 176.794 163.178 177.018 162.902 177.018H157.917C157.641 177.018 157.417 176.794 157.417 176.518ZM167.387 176.518C167.387 176.241 167.611 176.018 167.887 176.018H172.873C173.149 176.018 173.373 176.241 173.373 176.518C173.373 176.794 173.149 177.018 172.873 177.018H167.887C167.611 177.018 167.387 176.794 167.387 176.518ZM177.358 176.518C177.358 176.241 177.582 176.018 177.858 176.018H182.844C183.12 176.018 183.344 176.241 183.344 176.518C183.344 176.794 183.12 177.018 182.844 177.018H177.858C177.582 177.018 177.358 176.794 177.358 176.518ZM187.329 176.518C187.329 176.241 187.553 176.018 187.829 176.018H192.814C193.091 176.018 193.314 176.241 193.314 176.518C193.314 176.794 193.091 177.018 192.814 177.018H187.829C187.553 177.018 187.329 176.794 187.329 176.518ZM197.3 176.518C197.3 176.241 197.524 176.018 197.8 176.018H202.785C203.061 176.018 203.285 176.241 203.285 176.518C203.285 176.794 203.061 177.018 202.785 177.018H197.8C197.524 177.018 197.3 176.794 197.3 176.518ZM207.271 176.518C207.271 176.241 207.494 176.018 207.771 176.018H212.756C213.032 176.018 213.256 176.241 213.256 176.518C213.256 176.794 213.032 177.018 212.756 177.018H207.771C207.494 177.018 207.271 176.794 207.271 176.518ZM217.241 176.518C217.241 176.241 217.465 176.018 217.741 176.018H222.727C223.003 176.018 223.227 176.241 223.227 176.518C223.227 176.794 223.003 177.018 222.727 177.018H217.741C217.465 177.018 217.241 176.794 217.241 176.518ZM227.212 176.518C227.212 176.241 227.436 176.018 227.712 176.018H232.697C232.974 176.018 233.197 176.241 233.197 176.518C233.197 176.794 232.974 177.018 232.697 177.018H227.712C227.436 177.018 227.212 176.794 227.212 176.518ZM237.183 176.518C237.183 176.241 237.407 176.018 237.683 176.018H242.668C242.944 176.018 243.168 176.241 243.168 176.518C243.168 176.794 242.944 177.018 242.668 177.018H237.683C237.407 177.018 237.183 176.794 237.183 176.518ZM247.154 176.518C247.154 176.241 247.377 176.018 247.654 176.018H252.639C252.915 176.018 253.139 176.241 253.139 176.518C253.139 176.794 252.915 177.018 252.639 177.018H247.654C247.377 177.018 247.154 176.794 247.154 176.518ZM257.124 176.518C257.124 176.241 257.348 176.018 257.624 176.018H262.61C262.886 176.018 263.11 176.241 263.11 176.518C263.11 176.794 262.886 177.018 262.61 177.018H257.624C257.348 177.018 257.124 176.794 257.124 176.518ZM267.095 176.518C267.095 176.241 267.319 176.018 267.595 176.018H272.581C272.857 176.018 273.081 176.241 273.081 176.518C273.081 176.794 272.857 177.018 272.581 177.018H267.595C267.319 177.018 267.095 176.794 267.095 176.518ZM277.066 176.518C277.066 176.241 277.29 176.018 277.566 176.018H282.551C282.827 176.018 283.051 176.241 283.051 176.518C283.051 176.794 282.827 177.018 282.551 177.018H277.566C277.29 177.018 277.066 176.794 277.066 176.518ZM287.037 176.518C287.037 176.241 287.26 176.018 287.537 176.018H292.522C292.798 176.018 293.022 176.241 293.022 176.518C293.022 176.794 292.798 177.018 292.522 177.018H287.537C287.26 177.018 287.037 176.794 287.037 176.518ZM297.007 176.518C297.007 176.241 297.231 176.018 297.507 176.018H302.493C302.769 176.018 302.993 176.241 302.993 176.518C302.993 176.794 302.769 177.018 302.493 177.018H297.507C297.231 177.018 297.007 176.794 297.007 176.518ZM306.978 176.518C306.978 176.241 307.202 176.018 307.478 176.018H312.464C312.74 176.018 312.964 176.241 312.964 176.518C312.964 176.794 312.74 177.018 312.464 177.018H307.478C307.202 177.018 306.978 176.794 306.978 176.518ZM316.949 176.518C316.949 176.241 317.173 176.018 317.449 176.018H322.434C322.71 176.018 322.934 176.241 322.934 176.518C322.934 176.794 322.71 177.018 322.434 177.018H317.449C317.173 177.018 316.949 176.794 316.949 176.518ZM326.92 176.518C326.92 176.241 327.144 176.018 327.42 176.018H332.405C332.681 176.018 332.905 176.241 332.905 176.518C332.905 176.794 332.681 177.018 332.405 177.018H327.42C327.144 177.018 326.92 176.794 326.92 176.518ZM336.89 176.518C336.89 176.241 337.114 176.018 337.39 176.018H342.376C342.652 176.018 342.876 176.241 342.876 176.518C342.876 176.794 342.652 177.018 342.376 177.018H337.39C337.114 177.018 336.89 176.794 336.89 176.518ZM346.861 176.518C346.861 176.241 347.085 176.018 347.361 176.018H352.347C352.623 176.018 352.847 176.241 352.847 176.518C352.847 176.794 352.623 177.018 352.347 177.018H347.361C347.085 177.018 346.861 176.794 346.861 176.518ZM356.832 176.518C356.832 176.241 357.056 176.018 357.332 176.018H362.317C362.594 176.018 362.817 176.241 362.817 176.518C362.817 176.794 362.594 177.018 362.317 177.018H357.332C357.056 177.018 356.832 176.794 356.832 176.518ZM366.803 176.518C366.803 176.241 367.027 176.018 367.303 176.018H372.288C372.564 176.018 372.788 176.241 372.788 176.518C372.788 176.794 372.564 177.018 372.288 177.018H367.303C367.027 177.018 366.803 176.794 366.803 176.518ZM376.774 176.518C376.774 176.241 376.997 176.018 377.274 176.018H382.259C382.535 176.018 382.759 176.241 382.759 176.518C382.759 176.794 382.535 177.018 382.259 177.018H377.274C376.997 177.018 376.774 176.794 376.774 176.518ZM386.744 176.518C386.744 176.241 386.968 176.018 387.244 176.018H392.23C392.506 176.018 392.73 176.241 392.73 176.518C392.73 176.794 392.506 177.018 392.23 177.018H387.244C386.968 177.018 386.744 176.794 386.744 176.518ZM396.715 176.518C396.715 176.241 396.939 176.018 397.215 176.018H402.2C402.477 176.018 402.7 176.241 402.7 176.518C402.7 176.794 402.477 177.018 402.2 177.018H397.215C396.939 177.018 396.715 176.794 396.715 176.518ZM406.686 176.518C406.686 176.241 406.91 176.018 407.186 176.018H412.171C412.447 176.018 412.671 176.241 412.671 176.518C412.671 176.794 412.447 177.018 412.171 177.018H407.186C406.91 177.018 406.686 176.794 406.686 176.518ZM416.657 176.518C416.657 176.241 416.88 176.018 417.157 176.018H422.142C422.418 176.018 422.642 176.241 422.642 176.518C422.642 176.794 422.418 177.018 422.142 177.018H417.157C416.88 177.018 416.657 176.794 416.657 176.518ZM426.627 176.518C426.627 176.241 426.851 176.018 427.127 176.018H432.113C432.389 176.018 432.613 176.241 432.613 176.518C432.613 176.794 432.389 177.018 432.113 177.018H427.127C426.851 177.018 426.627 176.794 426.627 176.518ZM436.598 176.518C436.598 176.241 436.822 176.018 437.098 176.018H442.083C442.36 176.018 442.583 176.241 442.583 176.518C442.583 176.794 442.36 177.018 442.083 177.018H437.098C436.822 177.018 436.598 176.794 436.598 176.518ZM446.569 176.518C446.569 176.241 446.793 176.018 447.069 176.018H452.054C452.33 176.018 452.554 176.241 452.554 176.518C452.554 176.794 452.33 177.018 452.054 177.018H447.069C446.793 177.018 446.569 176.794 446.569 176.518ZM456.54 176.518C456.54 176.241 456.763 176.018 457.04 176.018H462.025C462.301 176.018 462.525 176.241 462.525 176.518C462.525 176.794 462.301 177.018 462.025 177.018H457.04C456.763 177.018 456.54 176.794 456.54 176.518ZM466.51 176.518C466.51 176.241 466.734 176.018 467.01 176.018H471.996C472.272 176.018 472.496 176.241 472.496 176.518C472.496 176.794 472.272 177.018 471.996 177.018H467.01C466.734 177.018 466.51 176.794 466.51 176.518ZM476.481 176.518C476.481 176.241 476.705 176.018 476.981 176.018H481.967C482.243 176.018 482.467 176.241 482.467 176.518C482.467 176.794 482.243 177.018 481.967 177.018H476.981C476.705 177.018 476.481 176.794 476.481 176.518ZM486.452 176.518C486.452 176.241 486.676 176.018 486.952 176.018H491.937C492.213 176.018 492.437 176.241 492.437 176.518C492.437 176.794 492.213 177.018 491.937 177.018H486.952C486.676 177.018 486.452 176.794 486.452 176.518ZM496.423 176.518C496.423 176.241 496.647 176.018 496.923 176.018H501.908C502.184 176.018 502.408 176.241 502.408 176.518C502.408 176.794 502.184 177.018 501.908 177.018H496.923C496.647 177.018 496.423 176.794 496.423 176.518ZM506.393 176.518C506.393 176.241 506.617 176.018 506.893 176.018H511.879C512.155 176.018 512.379 176.241 512.379 176.518C512.379 176.794 512.155 177.018 511.879 177.018H506.893C506.617 177.018 506.393 176.794 506.393 176.518ZM516.364 176.518C516.364 176.241 516.588 176.018 516.864 176.018H521.85C522.126 176.018 522.35 176.241 522.35 176.518C522.35 176.794 522.126 177.018 521.85 177.018H516.864C516.588 177.018 516.364 176.794 516.364 176.518ZM526.335 176.518C526.335 176.241 526.559 176.018 526.835 176.018H531.82C532.096 176.018 532.32 176.241 532.32 176.518C532.32 176.794 532.096 177.018 531.82 177.018H526.835C526.559 177.018 526.335 176.794 526.335 176.518ZM536.306 176.518C536.306 176.241 536.529 176.018 536.806 176.018H541.791C542.067 176.018 542.291 176.241 542.291 176.518C542.291 176.794 542.067 177.018 541.791 177.018H536.806C536.529 177.018 536.306 176.794 536.306 176.518ZM546.276 176.518C546.276 176.241 546.5 176.018 546.776 176.018H551.762C552.038 176.018 552.262 176.241 552.262 176.518C552.262 176.794 552.038 177.018 551.762 177.018H546.776C546.5 177.018 546.276 176.794 546.276 176.518ZM556.247 176.518C556.247 176.241 556.471 176.018 556.747 176.018H561.732C562.008 176.018 562.232 176.241 562.232 176.518C562.232 176.794 562.008 177.018 561.732 177.018H556.747C556.471 177.018 556.247 176.794 556.247 176.518ZM566.218 176.518C566.218 176.241 566.442 176.018 566.718 176.018H571.703C571.979 176.018 572.203 176.241 572.203 176.518C572.203 176.794 571.979 177.018 571.703 177.018H566.718C566.442 177.018 566.218 176.794 566.218 176.518ZM576.188 176.518C576.188 176.241 576.412 176.018 576.688 176.018H581.674C581.95 176.018 582.174 176.241 582.174 176.518C582.174 176.794 581.95 177.018 581.674 177.018H576.688C576.412 177.018 576.188 176.794 576.188 176.518ZM586.159 176.518C586.159 176.241 586.383 176.018 586.659 176.018H591.644C591.921 176.018 592.144 176.241 592.144 176.518C592.144 176.794 591.921 177.018 591.644 177.018H586.659C586.383 177.018 586.159 176.794 586.159 176.518ZM596.13 176.518C596.13 176.241 596.354 176.018 596.63 176.018H599.123C599.399 176.018 599.623 176.241 599.623 176.518C599.623 176.794 599.399 177.018 599.123 177.018H596.63C596.354 177.018 596.13 176.794 596.13 176.518ZM0.877197 221.018C0.601055 221.018 0.377197 221.241 0.377197 221.518C0.377197 221.794 0.601055 222.018 0.877197 222.018H3.36989C3.64603 222.018 3.86989 221.794 3.86989 221.518C3.86989 221.241 3.64603 221.018 3.36989 221.018H0.877197ZM8.35527 221.018C8.07912 221.018 7.85527 221.241 7.85527 221.518C7.85527 221.794 8.07912 222.018 8.35527 222.018H13.3406C13.6168 222.018 13.8406 221.794 13.8406 221.518C13.8406 221.241 13.6168 221.018 13.3406 221.018H8.35527ZM18.326 221.018C18.0499 221.018 17.826 221.241 17.826 221.518C17.826 221.794 18.0499 222.018 18.326 222.018H23.3114C23.5875 222.018 23.8114 221.794 23.8114 221.518C23.8114 221.241 23.5875 221.018 23.3114 221.018H18.326ZM28.2968 221.018C28.0206 221.018 27.7968 221.241 27.7968 221.518C27.7968 221.794 28.0206 222.018 28.2968 222.018H33.2822C33.5583 222.018 33.7822 221.794 33.7822 221.518C33.7822 221.241 33.5583 221.018 33.2822 221.018H28.2968ZM38.2675 221.018C37.9914 221.018 37.7675 221.241 37.7675 221.518C37.7675 221.794 37.9914 222.018 38.2675 222.018H43.2529C43.5291 222.018 43.7529 221.794 43.7529 221.518C43.7529 221.241 43.5291 221.018 43.2529 221.018H38.2675ZM48.2383 221.018C47.9622 221.018 47.7383 221.241 47.7383 221.518C47.7383 221.794 47.9622 222.018 48.2383 222.018H53.2237C53.4998 222.018 53.7237 221.794 53.7237 221.518C53.7237 221.241 53.4998 221.018 53.2237 221.018H48.2383ZM58.2091 221.018C57.9329 221.018 57.7091 221.241 57.7091 221.518C57.7091 221.794 57.9329 222.018 58.2091 222.018H63.1945C63.4706 222.018 63.6945 221.794 63.6945 221.518C63.6945 221.241 63.4706 221.018 63.1945 221.018H58.2091ZM68.1798 221.018C67.9037 221.018 67.6798 221.241 67.6798 221.518C67.6798 221.794 67.9037 222.018 68.1798 222.018H73.1652C73.4414 222.018 73.6652 221.794 73.6652 221.518C73.6652 221.241 73.4414 221.018 73.1652 221.018H68.1798ZM78.1506 221.018C77.8745 221.018 77.6506 221.241 77.6506 221.518C77.6506 221.794 77.8745 222.018 78.1506 222.018H83.136C83.4121 222.018 83.636 221.794 83.636 221.518C83.636 221.241 83.4121 221.018 83.136 221.018H78.1506ZM88.1214 221.018C87.8452 221.018 87.6214 221.241 87.6214 221.518C87.6214 221.794 87.8452 222.018 88.1214 222.018H93.1068C93.3829 222.018 93.6068 221.794 93.6068 221.518C93.6068 221.241 93.3829 221.018 93.1068 221.018H88.1214ZM98.0921 221.018C97.816 221.018 97.5921 221.241 97.5921 221.518C97.5921 221.794 97.816 222.018 98.0921 222.018H103.078C103.354 222.018 103.578 221.794 103.578 221.518C103.578 221.241 103.354 221.018 103.078 221.018H98.0921ZM108.063 221.018C107.787 221.018 107.563 221.241 107.563 221.518C107.563 221.794 107.787 222.018 108.063 222.018H113.048C113.324 222.018 113.548 221.794 113.548 221.518C113.548 221.241 113.324 221.018 113.048 221.018H108.063ZM118.034 221.018C117.758 221.018 117.534 221.241 117.534 221.518C117.534 221.794 117.758 222.018 118.034 222.018H123.019C123.295 222.018 123.519 221.794 123.519 221.518C123.519 221.241 123.295 221.018 123.019 221.018H118.034ZM128.004 221.018C127.728 221.018 127.504 221.241 127.504 221.518C127.504 221.794 127.728 222.018 128.004 222.018H132.99C133.266 222.018 133.49 221.794 133.49 221.518C133.49 221.241 133.266 221.018 132.99 221.018H128.004ZM137.975 221.018C137.699 221.018 137.475 221.241 137.475 221.518C137.475 221.794 137.699 222.018 137.975 222.018H142.961C143.237 222.018 143.461 221.794 143.461 221.518C143.461 221.241 143.237 221.018 142.961 221.018H137.975ZM147.946 221.018C147.67 221.018 147.446 221.241 147.446 221.518C147.446 221.794 147.67 222.018 147.946 222.018H152.931C153.207 222.018 153.431 221.794 153.431 221.518C153.431 221.241 153.207 221.018 152.931 221.018H147.946ZM157.917 221.018C157.641 221.018 157.417 221.241 157.417 221.518C157.417 221.794 157.641 222.018 157.917 222.018H162.902C163.178 222.018 163.402 221.794 163.402 221.518C163.402 221.241 163.178 221.018 162.902 221.018H157.917ZM167.887 221.018C167.611 221.018 167.387 221.241 167.387 221.518C167.387 221.794 167.611 222.018 167.887 222.018H172.873C173.149 222.018 173.373 221.794 173.373 221.518C173.373 221.241 173.149 221.018 172.873 221.018H167.887ZM177.858 221.018C177.582 221.018 177.358 221.241 177.358 221.518C177.358 221.794 177.582 222.018 177.858 222.018H182.844C183.12 222.018 183.344 221.794 183.344 221.518C183.344 221.241 183.12 221.018 182.844 221.018H177.858ZM187.829 221.018C187.553 221.018 187.329 221.241 187.329 221.518C187.329 221.794 187.553 222.018 187.829 222.018H192.814C193.091 222.018 193.314 221.794 193.314 221.518C193.314 221.241 193.091 221.018 192.814 221.018H187.829ZM197.8 221.018C197.524 221.018 197.3 221.241 197.3 221.518C197.3 221.794 197.524 222.018 197.8 222.018H202.785C203.061 222.018 203.285 221.794 203.285 221.518C203.285 221.241 203.061 221.018 202.785 221.018H197.8ZM207.771 221.018C207.494 221.018 207.271 221.241 207.271 221.518C207.271 221.794 207.494 222.018 207.771 222.018H212.756C213.032 222.018 213.256 221.794 213.256 221.518C213.256 221.241 213.032 221.018 212.756 221.018H207.771ZM217.741 221.018C217.465 221.018 217.241 221.241 217.241 221.518C217.241 221.794 217.465 222.018 217.741 222.018H222.727C223.003 222.018 223.227 221.794 223.227 221.518C223.227 221.241 223.003 221.018 222.727 221.018H217.741ZM227.712 221.018C227.436 221.018 227.212 221.241 227.212 221.518C227.212 221.794 227.436 222.018 227.712 222.018H232.697C232.974 222.018 233.197 221.794 233.197 221.518C233.197 221.241 232.974 221.018 232.697 221.018H227.712ZM237.683 221.018C237.407 221.018 237.183 221.241 237.183 221.518C237.183 221.794 237.407 222.018 237.683 222.018H242.668C242.944 222.018 243.168 221.794 243.168 221.518C243.168 221.241 242.944 221.018 242.668 221.018H237.683ZM247.654 221.018C247.377 221.018 247.154 221.241 247.154 221.518C247.154 221.794 247.377 222.018 247.654 222.018H252.639C252.915 222.018 253.139 221.794 253.139 221.518C253.139 221.241 252.915 221.018 252.639 221.018H247.654ZM257.624 221.018C257.348 221.018 257.124 221.241 257.124 221.518C257.124 221.794 257.348 222.018 257.624 222.018H262.61C262.886 222.018 263.11 221.794 263.11 221.518C263.11 221.241 262.886 221.018 262.61 221.018H257.624ZM267.595 221.018C267.319 221.018 267.095 221.241 267.095 221.518C267.095 221.794 267.319 222.018 267.595 222.018H272.581C272.857 222.018 273.081 221.794 273.081 221.518C273.081 221.241 272.857 221.018 272.581 221.018H267.595ZM277.566 221.018C277.29 221.018 277.066 221.241 277.066 221.518C277.066 221.794 277.29 222.018 277.566 222.018H282.551C282.827 222.018 283.051 221.794 283.051 221.518C283.051 221.241 282.827 221.018 282.551 221.018H277.566ZM287.537 221.018C287.26 221.018 287.037 221.241 287.037 221.518C287.037 221.794 287.26 222.018 287.537 222.018H292.522C292.798 222.018 293.022 221.794 293.022 221.518C293.022 221.241 292.798 221.018 292.522 221.018H287.537ZM297.507 221.018C297.231 221.018 297.007 221.241 297.007 221.518C297.007 221.794 297.231 222.018 297.507 222.018H302.493C302.769 222.018 302.993 221.794 302.993 221.518C302.993 221.241 302.769 221.018 302.493 221.018H297.507ZM307.478 221.018C307.202 221.018 306.978 221.241 306.978 221.518C306.978 221.794 307.202 222.018 307.478 222.018H312.464C312.74 222.018 312.964 221.794 312.964 221.518C312.964 221.241 312.74 221.018 312.464 221.018H307.478ZM317.449 221.018C317.173 221.018 316.949 221.241 316.949 221.518C316.949 221.794 317.173 222.018 317.449 222.018H322.434C322.71 222.018 322.934 221.794 322.934 221.518C322.934 221.241 322.71 221.018 322.434 221.018H317.449ZM327.42 221.018C327.144 221.018 326.92 221.241 326.92 221.518C326.92 221.794 327.144 222.018 327.42 222.018H332.405C332.681 222.018 332.905 221.794 332.905 221.518C332.905 221.241 332.681 221.018 332.405 221.018H327.42ZM337.39 221.018C337.114 221.018 336.89 221.241 336.89 221.518C336.89 221.794 337.114 222.018 337.39 222.018H342.376C342.652 222.018 342.876 221.794 342.876 221.518C342.876 221.241 342.652 221.018 342.376 221.018H337.39ZM347.361 221.018C347.085 221.018 346.861 221.241 346.861 221.518C346.861 221.794 347.085 222.018 347.361 222.018H352.347C352.623 222.018 352.847 221.794 352.847 221.518C352.847 221.241 352.623 221.018 352.347 221.018H347.361ZM357.332 221.018C357.056 221.018 356.832 221.241 356.832 221.518C356.832 221.794 357.056 222.018 357.332 222.018H362.317C362.594 222.018 362.817 221.794 362.817 221.518C362.817 221.241 362.594 221.018 362.317 221.018H357.332ZM367.303 221.018C367.027 221.018 366.803 221.241 366.803 221.518C366.803 221.794 367.027 222.018 367.303 222.018H372.288C372.564 222.018 372.788 221.794 372.788 221.518C372.788 221.241 372.564 221.018 372.288 221.018H367.303ZM377.274 221.018C376.997 221.018 376.774 221.241 376.774 221.518C376.774 221.794 376.997 222.018 377.274 222.018H382.259C382.535 222.018 382.759 221.794 382.759 221.518C382.759 221.241 382.535 221.018 382.259 221.018H377.274ZM387.244 221.018C386.968 221.018 386.744 221.241 386.744 221.518C386.744 221.794 386.968 222.018 387.244 222.018H392.23C392.506 222.018 392.73 221.794 392.73 221.518C392.73 221.241 392.506 221.018 392.23 221.018H387.244ZM397.215 221.018C396.939 221.018 396.715 221.241 396.715 221.518C396.715 221.794 396.939 222.018 397.215 222.018H402.2C402.477 222.018 402.7 221.794 402.7 221.518C402.7 221.241 402.477 221.018 402.2 221.018H397.215ZM407.186 221.018C406.91 221.018 406.686 221.241 406.686 221.518C406.686 221.794 406.91 222.018 407.186 222.018H412.171C412.447 222.018 412.671 221.794 412.671 221.518C412.671 221.241 412.447 221.018 412.171 221.018H407.186ZM417.157 221.018C416.88 221.018 416.657 221.241 416.657 221.518C416.657 221.794 416.88 222.018 417.157 222.018H422.142C422.418 222.018 422.642 221.794 422.642 221.518C422.642 221.241 422.418 221.018 422.142 221.018H417.157ZM427.127 221.018C426.851 221.018 426.627 221.241 426.627 221.518C426.627 221.794 426.851 222.018 427.127 222.018H432.113C432.389 222.018 432.613 221.794 432.613 221.518C432.613 221.241 432.389 221.018 432.113 221.018H427.127ZM437.098 221.018C436.822 221.018 436.598 221.241 436.598 221.518C436.598 221.794 436.822 222.018 437.098 222.018H442.083C442.36 222.018 442.583 221.794 442.583 221.518C442.583 221.241 442.36 221.018 442.083 221.018H437.098ZM447.069 221.018C446.793 221.018 446.569 221.241 446.569 221.518C446.569 221.794 446.793 222.018 447.069 222.018H452.054C452.33 222.018 452.554 221.794 452.554 221.518C452.554 221.241 452.33 221.018 452.054 221.018H447.069ZM457.04 221.018C456.763 221.018 456.54 221.241 456.54 221.518C456.54 221.794 456.763 222.018 457.04 222.018H462.025C462.301 222.018 462.525 221.794 462.525 221.518C462.525 221.241 462.301 221.018 462.025 221.018H457.04ZM467.01 221.018C466.734 221.018 466.51 221.241 466.51 221.518C466.51 221.794 466.734 222.018 467.01 222.018H471.996C472.272 222.018 472.496 221.794 472.496 221.518C472.496 221.241 472.272 221.018 471.996 221.018H467.01ZM476.981 221.018C476.705 221.018 476.481 221.241 476.481 221.518C476.481 221.794 476.705 222.018 476.981 222.018H481.967C482.243 222.018 482.467 221.794 482.467 221.518C482.467 221.241 482.243 221.018 481.967 221.018H476.981ZM486.952 221.018C486.676 221.018 486.452 221.241 486.452 221.518C486.452 221.794 486.676 222.018 486.952 222.018H491.937C492.213 222.018 492.437 221.794 492.437 221.518C492.437 221.241 492.213 221.018 491.937 221.018H486.952ZM496.923 221.018C496.647 221.018 496.423 221.241 496.423 221.518C496.423 221.794 496.647 222.018 496.923 222.018H501.908C502.184 222.018 502.408 221.794 502.408 221.518C502.408 221.241 502.184 221.018 501.908 221.018H496.923ZM506.893 221.018C506.617 221.018 506.393 221.241 506.393 221.518C506.393 221.794 506.617 222.018 506.893 222.018H511.879C512.155 222.018 512.379 221.794 512.379 221.518C512.379 221.241 512.155 221.018 511.879 221.018H506.893ZM516.864 221.018C516.588 221.018 516.364 221.241 516.364 221.518C516.364 221.794 516.588 222.018 516.864 222.018H521.85C522.126 222.018 522.35 221.794 522.35 221.518C522.35 221.241 522.126 221.018 521.85 221.018H516.864ZM526.835 221.018C526.559 221.018 526.335 221.241 526.335 221.518C526.335 221.794 526.559 222.018 526.835 222.018H531.82C532.096 222.018 532.32 221.794 532.32 221.518C532.32 221.241 532.096 221.018 531.82 221.018H526.835ZM536.806 221.018C536.529 221.018 536.306 221.241 536.306 221.518C536.306 221.794 536.529 222.018 536.806 222.018H541.791C542.067 222.018 542.291 221.794 542.291 221.518C542.291 221.241 542.067 221.018 541.791 221.018H536.806ZM546.776 221.018C546.5 221.018 546.276 221.241 546.276 221.518C546.276 221.794 546.5 222.018 546.776 222.018H551.762C552.038 222.018 552.262 221.794 552.262 221.518C552.262 221.241 552.038 221.018 551.762 221.018H546.776ZM556.747 221.018C556.471 221.018 556.247 221.241 556.247 221.518C556.247 221.794 556.471 222.018 556.747 222.018H561.732C562.008 222.018 562.232 221.794 562.232 221.518C562.232 221.241 562.008 221.018 561.732 221.018H556.747ZM566.718 221.018C566.442 221.018 566.218 221.241 566.218 221.518C566.218 221.794 566.442 222.018 566.718 222.018H571.703C571.979 222.018 572.203 221.794 572.203 221.518C572.203 221.241 571.979 221.018 571.703 221.018H566.718ZM576.688 221.018C576.412 221.018 576.188 221.241 576.188 221.518C576.188 221.794 576.412 222.018 576.688 222.018H581.674C581.95 222.018 582.174 221.794 582.174 221.518C582.174 221.241 581.95 221.018 581.674 221.018H576.688ZM586.659 221.018C586.383 221.018 586.159 221.241 586.159 221.518C586.159 221.794 586.383 222.018 586.659 222.018H591.644C591.921 222.018 592.144 221.794 592.144 221.518C592.144 221.241 591.921 221.018 591.644 221.018H586.659ZM596.63 221.018C596.354 221.018 596.13 221.241 596.13 221.518C596.13 221.794 596.354 222.018 596.63 222.018H599.123C599.399 222.018 599.623 221.794 599.623 221.518C599.623 221.241 599.399 221.018 599.123 221.018H596.63Z" fill="#8C8C8C" class="fsUDbZGx_2"></path>
<g filter="url(#filter0_d_16_1562)">
<path d="M1 217.118C16.0125 230.989 57.5471 250.409 103.585 217.118C152.426 186.115 205.003 204.2 225.187 217.118C265.22 245.072 323.769 239.354 358.798 217.118C393.827 194.883 469.891 195.518 503.919 217.118C537.947 238.719 586.488 226.33 601 217.118" stroke="url(#paint0_linear_16_1562)" stroke-width="3" class="fsUDbZGx_3"></path>
</g>
<g filter="url(#filter1_d_16_1562)">
<path d="M1 218.843C1 218.843 67.9791 250.406 89.2164 211.599C110.454 172.791 115.899 106.041 149.661 106.041C183.423 106.041 179.611 151.576 210.105 151.576C240.6 151.576 250.581 19.5119 291.787 17.0415C332.994 14.5712 333.173 123.117 372.38 125.186C411.587 127.256 410.421 59.165 446.983 60.5064C483.545 61.8478 490.546 139.675 520.496 134.5C550.446 129.326 600 18.0764 600 18.0764" stroke="url(#paint1_linear_16_1562)" stroke-width="3" stroke-linecap="round" class="fsUDbZGx_4"></path>
</g>
</g>
<defs>
<filter id="filter0_d_16_1562" x="-6.01794" y="192.498" width="621.822" height="59.002" filterUnits="userSpaceOnUse" color-interpolation-filters="sRGB">
<feFlood flood-opacity="0" result="BackgroundImageFix"></feFlood>
<feColorMatrix in="SourceAlpha" type="matrix" values="0 0 0 0 0 0 0 0 0 0 0 0 0 0 0 0 0 0 127 0" result="hardAlpha"></feColorMatrix>
<feOffset dx="4" dy="4"></feOffset>
<feGaussianBlur stdDeviation="5"></feGaussianBlur>
<feComposite in2="hardAlpha" operator="out"></feComposite>
<feColorMatrix type="matrix" values="0 0 0 0 0.54902 0 0 0 0 0.54902 0 0 0 0 0.54902 0 0 0 0.7 0"></feColorMatrix>
<feBlend mode="normal" in2="BackgroundImageFix" result="effect1_dropShadow_16_1562"></feBlend>
<feBlend mode="normal" in="SourceGraphic" in2="effect1_dropShadow_16_1562" result="shape"></feBlend>
</filter>
<filter id="filter1_d_16_1562" x="-6.50035" y="9.5" width="622.001" height="236.945" filterUnits="userSpaceOnUse" color-interpolation-filters="sRGB">
<feFlood flood-opacity="0" result="BackgroundImageFix"></feFlood>
<feColorMatrix in="SourceAlpha" type="matrix" values="0 0 0 0 0 0 0 0 0 0 0 0 0 0 0 0 0 0 127 0" result="hardAlpha"></feColorMatrix>
<feOffset dx="4" dy="4"></feOffset>
<feGaussianBlur stdDeviation="5"></feGaussianBlur>
<feColorMatrix type="matrix" values="0 0 0 0 0.54902 0 0 0 0 0.54902 0 0 0 0 0.54902 0 0 0 0.7 0"></feColorMatrix>
<feBlend mode="normal" in2="BackgroundImageFix" result="effect1_dropShadow_16_1562"></feBlend>
<feBlend mode="normal" in="SourceGraphic" in2="effect1_dropShadow_16_1562" result="shape"></feBlend>
</filter>
<linearGradient id="paint0_linear_16_1562" x1="1" y1="236" x2="601" y2="236" gradientUnits="userSpaceOnUse">
<stop stop-color="#98D750"></stop>
<stop offset="1" stop-color="#39B54A"></stop>
</linearGradient>
<linearGradient id="paint1_linear_16_1562" x1="7.65557" y1="-198.997" x2="600" y2="-198.997" gradientUnits="userSpaceOnUse">
<stop stop-color="#FF9F03"></stop>
<stop offset="1" stop-color="#C11A2A"></stop>
</linearGradient>
</defs>
<style data-made-with="vivus-instant">.fsUDbZGx_0{stroke-dasharray:1720 1722;stroke-dashoffset:1721;animation:fsUDbZGx_draw 2000ms linear 0ms forwards;}.fsUDbZGx_1{stroke-dasharray:1720 1722;stroke-dashoffset:1721;animation:fsUDbZGx_draw 2000ms linear 250ms forwards;}.fsUDbZGx_2{stroke-dasharray:3950 3952;stroke-dashoffset:3951;animation:fsUDbZGx_draw 2000ms linear 500ms forwards;}.fsUDbZGx_3{stroke-dasharray:632 634;stroke-dashoffset:633;animation:fsUDbZGx_draw 2000ms linear 750ms forwards;}.fsUDbZGx_4{stroke-dasharray:970 972;stroke-dashoffset:971;animation:fsUDbZGx_draw 2000ms linear 1000ms forwards;}@keyframes fsUDbZGx_draw{100%{stroke-dashoffset:0;}}@keyframes fsUDbZGx_fade{0%{stroke-opacity:1;}94.44444444444444%{stroke-opacity:1;}100%{stroke-opacity:0;}}</style></svg>
